<svg width="44" height="44" viewBox="0 0 44 44" fill="#ffffff" xmlns="http://www.w3.org/2000/svg">
<path d="M39.9594 43.3058L22 25.342L4.0406 43.3058C3.11519 44.2314 1.61947 44.2314 0.694057 43.3058C-0.231352 42.3801 -0.231352 40.8841 0.694057 39.9584L18.6535 21.9946L0.694057 4.04159C-0.231352 3.11595 -0.231352 1.61986 0.694057 0.694228C1.61947 -0.231408 3.11519 -0.231408 4.0406 0.694228L22 18.658L39.9594 0.694228C40.8848 -0.231408 42.3805 -0.231408 43.3059 0.694228C44.2314 1.61986 44.2314 3.11595 43.3059 4.04159L25.3465 21.9946L43.3059 39.9584C44.2314 40.8841 44.2314 42.3801 43.3059 43.3058C42.3805 44.2314 40.8848 44.2314 39.9594 43.3058V43.3058Z" fill="#ffffff"/>
</svg>
