<svg width="88" height="90" viewBox="0 0 88 90" fill="none" xmlns="http://www.w3.org/2000/svg">
<path d="M40.16 14.35C41.4112 13.0958 42.1139 11.3966 42.1139 9.62499C42.1139 7.85341 41.4112 6.15415 40.16 4.89999C39.6905 4.43056 39.4268 3.79387 39.4268 3.12999C39.4268 2.46611 39.6905 1.82942 40.16 1.35999C40.6294 0.890556 41.2661 0.626831 41.93 0.626831C42.5939 0.626831 43.2305 0.890556 43.7 1.35999C45.8861 3.55309 47.1137 6.52339 47.1137 9.61999C47.1137 12.7166 45.8861 15.6869 43.7 17.88C42.4487 19.1342 41.7461 20.8334 41.7461 22.605C41.7461 24.3766 42.4487 26.0758 43.7 27.33C43.9324 27.5624 44.1168 27.8384 44.2426 28.1421C44.3684 28.4458 44.4331 28.7713 44.4331 29.1C44.4331 29.4287 44.3684 29.7542 44.2426 30.0579C44.1168 30.3616 43.9324 30.6375 43.7 30.87C43.4675 31.1024 43.1916 31.2868 42.8879 31.4126C42.5842 31.5384 42.2587 31.6031 41.93 31.6031C41.6013 31.6031 41.2758 31.5384 40.9721 31.4126C40.6684 31.2868 40.3924 31.1024 40.16 30.87C37.9738 28.6769 36.7463 25.7066 36.7463 22.61C36.7463 19.5134 37.9738 16.5431 40.16 14.35V14.35ZM55.16 18.08C53.4648 19.7785 52.5127 22.0803 52.5127 24.48C52.5127 26.8797 53.4648 29.1814 55.16 30.88C55.6294 31.3494 56.2661 31.6131 56.93 31.6131C57.5939 31.6131 58.2305 31.3494 58.7 30.88C59.1694 30.4106 59.4331 29.7739 59.4331 29.11C59.4331 28.4461 59.1694 27.8094 58.7 27.34C57.9422 26.5791 57.5167 25.5489 57.5167 24.475C57.5167 23.4011 57.9422 22.3709 58.7 21.61C59.5405 20.7696 60.2073 19.7718 60.6623 18.6737C61.1172 17.5756 61.3513 16.3986 61.3513 15.21C61.3513 14.0214 61.1172 12.8444 60.6623 11.7463C60.2073 10.6481 59.5405 9.65039 58.7 8.80999C58.4675 8.57755 58.1916 8.39317 57.8879 8.26737C57.5842 8.14158 57.2587 8.07683 56.93 8.07683C56.6013 8.07683 56.2758 8.14158 55.9721 8.26737C55.6684 8.39317 55.3924 8.57755 55.16 8.80999C54.9275 9.04243 54.7432 9.31838 54.6174 9.62207C54.4916 9.92577 54.4268 10.2513 54.4268 10.58C54.4268 10.9087 54.4916 11.2342 54.6174 11.5379C54.7432 11.8416 54.9275 12.1175 55.16 12.35C55.5364 12.7261 55.835 13.1727 56.0388 13.6643C56.2425 14.1559 56.3474 14.6828 56.3474 15.215C56.3474 15.7471 56.2425 16.2741 56.0388 16.7657C55.835 17.2572 55.5364 17.7039 55.16 18.08V18.08ZM25.16 30.88C25.3924 31.1124 25.6684 31.2968 25.9721 31.4226C26.2758 31.5484 26.6013 31.6131 26.93 31.6131C27.2587 31.6131 27.5842 31.5484 27.8879 31.4226C28.1916 31.2968 28.4675 31.1124 28.7 30.88C28.9324 30.6475 29.1168 30.3716 29.2426 30.0679C29.3684 29.7642 29.4331 29.4387 29.4331 29.11C29.4331 28.7813 29.3684 28.4558 29.2426 28.1521C29.1168 27.8484 28.9324 27.5724 28.7 27.34C27.9422 26.5791 27.5167 25.5489 27.5167 24.475C27.5167 23.4011 27.9422 22.3709 28.7 21.61C30.3952 19.9114 31.3472 17.6097 31.3472 15.21C31.3472 12.8103 30.3952 10.5085 28.7 8.80999C28.4675 8.57755 28.1916 8.39317 27.8879 8.26737C27.5842 8.14158 27.2587 8.07683 26.93 8.07683C26.6013 8.07683 26.2758 8.14158 25.9721 8.26737C25.6684 8.39317 25.3924 8.57755 25.16 8.80999C24.9275 9.04243 24.7432 9.31838 24.6174 9.62207C24.4916 9.92577 24.4268 10.2513 24.4268 10.58C24.4268 10.9087 24.4916 11.2342 24.6174 11.5379C24.7432 11.8416 24.9275 12.1175 25.16 12.35C25.9178 13.1109 26.3433 14.1411 26.3433 15.215C26.3433 16.2889 25.9178 17.3191 25.16 18.08V18.08C23.4679 19.7781 22.5177 22.0777 22.5177 24.475C22.5177 26.8723 23.4679 29.1718 25.16 30.87V30.88ZM0.519979 86.88C0.517312 86.2187 0.776788 85.5832 1.2416 85.1128C1.7064 84.6424 2.33867 84.3753 2.99998 84.37H20.47C15.1498 80.9258 11.1555 75.7787 9.13998 69.77C8.97998 69.2833 8.82665 68.79 8.67998 68.29C6.44638 60.429 5.04864 52.3543 4.50998 44.2C4.45757 43.272 4.59456 42.3431 4.91261 41.4698C5.23065 40.5964 5.7231 39.7969 6.35998 39.12C7.00395 38.4405 7.7791 37.8987 8.63853 37.5274C9.49796 37.1561 10.4238 36.9631 11.36 36.96H67.6C68.5362 36.9631 69.462 37.1561 70.3214 37.5274C71.1809 37.8987 71.956 38.4405 72.6 39.12C73.2373 39.7966 73.7301 40.596 74.0482 41.4695C74.3663 42.3429 74.503 43.272 74.45 44.2C74.35 45.92 74.19 47.69 73.98 49.48H75.46C77.2821 49.4795 79.0804 49.894 80.7185 50.6919C82.3565 51.4899 83.7914 52.6504 84.9142 54.0855C86.037 55.5205 86.8182 57.1925 87.1987 58.9744C87.5791 60.7563 87.5488 62.6015 87.11 64.37C86.4615 66.9644 84.9649 69.2679 82.8579 70.9147C80.7509 72.5615 78.1542 73.4574 75.48 73.46H68.24C65.946 77.8933 62.5376 81.6532 58.35 84.37H75.46C76.123 84.37 76.7589 84.6334 77.2277 85.1022C77.6966 85.5711 77.96 86.207 77.96 86.87C77.96 87.533 77.6966 88.1689 77.2277 88.6378C76.7589 89.1066 76.123 89.37 75.46 89.37H2.99998C2.34041 89.3647 1.70965 89.099 1.24513 88.6307C0.780602 88.1625 0.519958 87.5296 0.519979 86.87V86.88ZM70.24 68.46H75.47C77.0289 68.4577 78.5424 67.935 79.7706 66.9749C80.9988 66.0148 81.8714 64.6722 82.25 63.16C82.5046 62.1301 82.5218 61.0557 82.3002 60.0182C82.0787 58.9807 81.6242 58.0071 80.9711 57.171C80.318 56.3349 79.4835 55.6582 78.5304 55.192C77.5774 54.7258 76.5309 54.4823 75.47 54.48H73.31C72.5848 59.1421 71.5831 63.7569 70.31 68.3L70.24 68.46ZM36.6 84.16H42.35C47.5123 84.1844 52.5449 82.5436 56.7008 79.4812C60.8567 76.4187 63.9143 72.0979 65.42 67.16L65.49 66.93C67.6281 59.4252 68.9688 51.7159 69.49 43.93C69.504 43.6827 69.4668 43.4351 69.3808 43.2028C69.2948 42.9705 69.1617 42.7585 68.99 42.58C68.8112 42.3922 68.5952 42.2437 68.3559 42.1439C68.1167 42.044 67.8592 41.995 67.6 42H11.38C11.1217 41.9977 10.8657 42.0489 10.6282 42.1505C10.3907 42.252 10.1768 42.4017 9.99998 42.59C9.82823 42.7685 9.69517 42.9805 9.60914 43.2128C9.5231 43.4451 9.48594 43.6927 9.49998 43.94C10.0211 51.7259 11.3619 59.4352 13.5 66.94C13.62 67.37 13.75 67.79 13.89 68.2C15.5183 72.9091 18.5887 76.9856 22.6654 79.8506C26.742 82.7156 31.6177 84.2234 36.6 84.16V84.16Z" fill="black"/>
</svg>
