<svg width="124" height="124" viewBox="0 0 124 124" fill="none" xmlns="http://www.w3.org/2000/svg">
<path d="M28.3 88H51.6C52.2 88 52.6 87.5 52.6 87C52.6 86.4 52.1 86 51.6 86H28.3C27.7 86 27.3 86.5 27.3 87C27.3 87.5 27.7 88 28.3 88Z" fill="#F68575"/>
<path d="M28.3 82.3H51.6C52.2 82.3 52.6 81.8 52.6 81.3C52.6 80.8 52.1 80.3 51.6 80.3H28.3C27.7 80.3 27.3 80.8 27.3 81.3C27.3 81.8 27.7 82.3 28.3 82.3Z" fill="#F68575"/>
<path d="M28.3 93.7H51.6C52.2 93.7 52.6 93.2 52.6 92.7C52.6 92.2 52.1 91.7 51.6 91.7H28.3C27.7 91.7 27.3 92.2 27.3 92.7C27.3 93.2 27.7 93.7 28.3 93.7Z" fill="#F68575"/>
<path d="M28.3 76.6H51.6C52.2 76.6 52.6 76.1 52.6 75.6C52.6 75 52.1 74.6 51.6 74.6H28.3C27.7 74.6 27.3 75.1 27.3 75.6C27.3 76.2 27.7 76.6 28.3 76.6Z" fill="#F68575"/>
<path d="M28.3 99.3H51.6C52.2 99.3 52.6 98.8 52.6 98.3C52.6 97.8 52.1 97.3 51.6 97.3H28.3C27.7 97.3 27.3 97.8 27.3 98.3C27.3 98.8 27.7 99.3 28.3 99.3Z" fill="#F68575"/>
<path d="M28.3 65.3H51.6C52.2 65.3 52.6 64.8 52.6 64.3C52.6 63.8 52.1 63.3 51.6 63.3H28.3C27.7 63.3 27.3 63.8 27.3 64.3C27.3 64.8 27.7 65.3 28.3 65.3Z" fill="#F68575"/>
<path d="M28.3 70.9H51.6C52.2 70.9 52.6 70.4 52.6 69.9C52.6 69.4 52.1 68.9 51.6 68.9H28.3C27.7 68.9 27.3 69.4 27.3 69.9C27.3 70.4 27.7 70.9 28.3 70.9Z" fill="#F68575"/>
<path d="M62 0C27.8 0 0 27.8 0 62C0 96.2 27.8 124 62 124C96.2 124 124 96.2 124 62C124 27.8 96.2 0 62 0ZM80.6 21.1C80.6 20.5 81.1 20.1 81.6 20.1C82.1 20.1 82.6 20.6 82.6 21.1V24.8C82.6 25.4 82.1 25.8 81.6 25.8C81.1 25.8 80.6 25.3 80.6 24.8V21.1ZM65 26.8C65.4 26.4 66 26.4 66.4 26.8L69.1 29.4C69.5 29.8 69.5 30.4 69.1 30.8C68.9 31 68.6 31.1 68.4 31.1C68.1 31.1 67.9 31 67.7 30.8L65 28.2C64.6 27.8 64.6 27.2 65 26.8ZM57.2 103.6H22.7V59H57.1V103.6H57.2ZM58.1 43C58.1 42.4 58.6 42 59.1 42H62.9C63.5 42 63.9 42.5 63.9 43C63.9 43.5 63.4 44 62.9 44H59.1C58.5 44 58.1 43.5 58.1 43ZM82.6 102.9C82.6 103.5 82.1 103.9 81.6 103.9H62.7C62.1 103.9 61.7 103.4 61.7 102.9C61.7 102.4 62.2 101.9 62.7 101.9H80.5V73.2C80.5 72.6 81 72.2 81.5 72.2C82 72.2 82.5 72.7 82.5 73.2V102.9H82.6ZM81.7 68.7C80.1 68.7 78.5 67.8 77.8 66.4H85.6C84.8 67.8 83.3 68.7 81.7 68.7ZM86 64.4H77.4V62.7H86V64.4ZM77.4 60.6V59H86V60.6H77.4ZM86.6 54.5C86.2 54.6 86 55 86 55.4V57H82.7V48.2L84.8 45.5C86 44 85.9 41.8 84.6 40.4C83.8 39.6 82.8 39.2 81.7 39.2C80.6 39.2 79.6 39.7 78.8 40.5C77.6 41.9 77.5 43.9 78.6 45.4L80.7 48.1V57H77.4V55.4C77.4 55 77.1 54.6 76.8 54.5C72 52.6 68.9 48 68.9 43C68.9 36.1 74.7 30.5 81.8 30.5C88.9 30.5 94.7 36.1 94.7 43C94.5 48 91.4 52.5 86.6 54.5ZM81.7 46.2L80.2 44.3C79.7 43.6 79.7 42.6 80.3 41.9C80.7 41.5 81.1 41.3 81.7 41.3C81.7 41.3 81.7 41.3 81.8 41.3C82.3 41.3 82.8 41.5 83.2 41.9C83.9 42.6 83.9 43.6 83.3 44.3L81.7 46.2ZM98.3 28.2L95.6 30.8C95.4 31 95.1 31.1 94.9 31.1C94.6 31.1 94.4 31 94.2 30.8C93.8 30.4 93.8 29.8 94.2 29.4L96.9 26.8C97.3 26.4 97.9 26.4 98.3 26.8C98.7 27.2 98.7 27.8 98.3 28.2ZM104.2 44H100.4C99.8 44 99.4 43.5 99.4 43C99.4 42.4 99.9 42 100.4 42H104.2C104.8 42 105.2 42.5 105.2 43C105.3 43.5 104.8 44 104.2 44Z" fill="#F68575"/>
<path d="M81.7 33.7C76.5 33.7 72.2 37.8 72.2 42.9C72.2 43.5 72.7 43.9 73.2 43.9C73.7 43.9 74.2 43.4 74.2 42.9C74.2 38.9 77.5 35.7 81.7 35.7C82.3 35.7 82.7 35.2 82.7 34.7C82.7 34.2 82.2 33.7 81.7 33.7Z" fill="#F68575"/>
</svg>
