<svg width="54" height="54" viewBox="0 0 54 54" fill="none" xmlns="http://www.w3.org/2000/svg">
<path d="M23.8301 0.222663C23.7922 0.224485 23.7544 0.227743 23.7168 0.232428C10.2008 1.88867 0.0167583 13.381 3.17858e-07 26.9981C-1.05953e-07 26.9987 -1.05953e-07 26.9994 3.17858e-07 27C3.17858e-07 41.8939 12.1061 54 27 54C27.0007 54 27.0013 54 27.002 54C40.6244 53.9882 52.1225 43.8008 53.7773 30.2793C53.8122 29.9949 53.7648 29.7064 53.6408 29.4481C53.5168 29.1897 53.3214 28.9723 53.0778 28.8215C52.8341 28.6707 52.5523 28.5928 52.2658 28.5971C51.9793 28.6014 51.7 28.6877 51.4609 28.8457C48.3577 30.8985 44.7207 31.9958 41 32C30.4888 32 22 23.5112 22 13C22.0049 9.28278 23.1006 5.6479 25.1504 2.54688C25.3026 2.31592 25.388 2.04737 25.3972 1.7709C25.4063 1.49444 25.3389 1.22082 25.2022 0.980306C25.0656 0.739787 24.8651 0.541728 24.623 0.408021C24.3808 0.274314 24.1064 0.210164 23.8301 0.222663V0.222663ZM21.2754 3.82032C19.9274 6.71159 19.0039 9.78222 19 12.9981C19 12.9987 19 12.9994 19 13C19 25.1325 28.8675 35 41 35C41.0007 35 41.0013 35 41.002 35C44.2211 34.9967 47.2956 34.0727 50.1895 32.7227C47.5844 43.3139 38.1546 50.9894 27 51C13.7281 51 3.00107 40.2736 3 27.002V27C3.01463 15.8496 10.688 6.42535 21.2754 3.82032V3.82032Z" fill="white"/>
</svg>
