<svg id="Layer_1" data-name="Layer 1" xmlns="http://www.w3.org/2000/svg" viewBox="0 0 602 235"><defs><style>.cls-1{fill:#fdfdfd;}.cls-2{fill:#535353;}.cls-3{fill:#565656;}.cls-4{fill:#555;}.cls-5{fill:#585858;}.cls-6{fill:#575757;}.cls-7{fill:#5c5c5c;}.cls-8{fill:#545454;}.cls-9{fill:#f5f5f5;}.cls-10{fill:#5a5a5a;}.cls-11{fill:#f0f0f0;}.cls-12{fill:#f2f2f2;}.cls-13{fill:#525252;}.cls-14{fill:#686868;}.cls-15{fill:#4e4e4e;}.cls-16{fill:#5e5e5e;}.cls-17{fill:#5d5d5d;}.cls-18{fill:#707070;}.cls-19{fill:#656565;}.cls-20{fill:#626262;}.cls-21{fill:#595959;}.cls-22{fill:#ebebeb;}.cls-23{fill:#f9f9f9;}.cls-24{fill:#f1f1f1;}.cls-25{fill:#f7f7f7;}</style></defs><title>kush</title><path class="cls-1" d="M6,514V279H608V514ZM257.73,339.74l-1,1-.89,1-8,10.22a132.2,132.2,0,0,0-20.05,39.54c-.71,2.35-2.51,4.37-3.81,6.54l-12.86,6.32-1.66-1.74L222.7,379.5c-1.41-.19-2.61-.68-2.9-.35-5.48,6.17-10.85,12.44-16.24,18.69l-5.82,5-4,.88-1.15-1.15L203,383.46l-1.06-1.38c-1.5,1-3.44,1.7-4.42,3.08-3.28,4.58-6.22,9.41-9.28,14.15-.78.68-.44,2-.17,3.42.34,1.78.61,3.58.92,5.38a36.07,36.07,0,0,0,6-1.3c1.47-.58,2.66-1.9,4-2.88l6.16-2.9c.26,2.17.11,6,.85,6.18a11.5,11.5,0,0,0,7.44-.66c4.09-2.08,7.75-5,11.59-7.55.74.93,1.81,1.75,2.15,2.8,1,3.21,3.35,5.08,6.35,4.07,4.81-1.62,9.33-4.12,14-6.24l-.87-1.91c-2,.84-3.91,2-6,2.43s-5.27,1.06-6.6,0c-2.51-2.05-2.44-5.24.12-7.84A171.75,171.75,0,0,0,264,354c2.08-3.73,4.51-7.31,6.11-11.23,1.29-3.13,4.13-7.53.24-9.7-1.87-1-6.1,2.16-9.26,3.44a3.64,3.64,0,0,0-.51.53l-1.84,1.66ZM386.35,381a.3.3,0,0,0-.49.09c.09-.7.19-1.39.28-2.08,3.65-2.79,4.67-7.93,2.19-11-.05-3.59-2-5.48-5.42-6-6.53-1-13.72,5.26-12.9,11.81.45,3.58-.35,6.08-3,8.21l-7.95,2.66,1-5.66c2.6-3.05,4.91-6.13,1.35-10a6.13,6.13,0,0,0-7-4.83c-4.48.47-8.38,2.33-10.28,6.9l0,0-.85,4.85c-.64,2.59-.93,5.33-2,7.73-2.44,5.56-2.77,11.17.1,12.4,4.6,2,7.7-1.41,10.9-4a4.75,4.75,0,0,0,1.05-1c3.22-5.11,8.63-5.26,13.73-6.12l1.08,8.78c3-.79,6.36-1,8.92-2.51,2.74-1.64,4.74-4.53,7.06-6.87,4.9-.91,10.39-.61,12.94-6.33l4.22-.7c-2.4,4.59-4.51,8.28-6.25,12.14-.61,1.36-.31,3.14-.42,4.73,1.35-.65,3.39-1,3.93-2,3.17-6.21,6-12.59,8.87-19a2.32,2.32,0,0,0-.45-2.18,2.91,2.91,0,0,0-2.6-.06c-2.52,2.26-4.83,4.74-7.22,7.14L387,381.71Zm166.51-14L551,368.07l-7.31,4.75c-3.2,1.34-6.31,3.1-9.65,3.86-2.09.47-4.53-.56-6.82-.91,1-2.11,1.48-4.61,3-6.24,2.33-2.58,5.31-4.57,8-6.81l-.54-1.07h-9.51c3.31-6.7,8.45-9.81,13.82-12.69l3.91.53-2.55,4.82c5.06-1.41,9.33-5.24,8-7-2.58-3.46-5.9-1.21-8.94-.39a2.26,2.26,0,0,0-.44.22c-5.26,3.39-10.89,6.32-15.66,10.3-4.28,3.58-3.54,6,1.25,8.95l-5.9,5.19-.19.23-1.65.65c-2.93,1.55-5.8,3.24-8.84,4.55a5.23,5.23,0,0,1-4.05.08c-.67-.36-.77-2.38-.6-3.58.32-2.21,1-4.36,1.55-6.54l5.31-3.89c2.87-2.67,2.68-4.5-1.42-5.35a13.63,13.63,0,0,1-2.43-1L510,355c.56-1,1.56-2,1.59-3,.08-2.59-.27-5.18-.45-7.78L504,347q-1.48,2-2.95,4c-.8,2.18-2.87,5.15-2.11,6.37,1.23,2,4.22,3,6.63,4.13a36.37,36.37,0,0,0,5.84,1.57l-3.4,4c-2.11,2.82-4.56,5.45-6.19,8.52-.75,1.42-.57,4.32.43,5.41s3.85,1.28,5.3.61c4-1.86,7.67-4.38,11.48-6.63.65.34,1.87.7,1.85,1-.21,5.45,3.77,6.19,7.21,5.17,5.85-1.73,11.36-4.6,17-7l5-1.08c0,3.12,1.07,5.42,4.57,5.9,4.65.65,11.52-2,13.17-5.8L561,375h-3c-3.62-2.29-2.27-4.78,0-6.95,2.85-2.78,6-5.29,9.51-8.38l-9.39-.49c-.23-.5-.45-1-.67-1.5q2.87-3.18,5.74-6.35c1.32-1.45,2.65-2.88,4-4.31l8.3-.79-3.16,5,.91,1.11a77.73,77.73,0,0,0,6.18-4.74,3.31,3.31,0,0,0,.79-3,3.18,3.18,0,0,0-2.79-1.38c-3.5,1.07-6.88,2.52-10.3,3.83-4.58,3.4-9.52,6.43-13.59,10.35-2.27,2.19-1,4.9,2.53,5.59l.18,2.09-.12.08ZM28,379l-8.42,4.74a22.21,22.21,0,0,0-2,1.44c-2.92,2.64-5,5.83-3.07,9.7s5.49,3.17,8.83,2.43c3.5-.78,7-1.73,11.35-2.85l-12.1,28.19L23.87,424c1.74-1.48,4.09-2.63,5.1-4.5a110.34,110.34,0,0,0,7.75-16.75c3.09-9.16,8.31-16.07,17.34-19.85.15-.06.28-.27.41-.27,1.92,0,4.25-.71,5.69.12,10.43,6,16,20.14,13.34,33-.34,1.66-.54,3.34-.81,5,4.61-4.63,5.39-10.24,5.17-16-.46-11.6-4.58-21.26-14.82-26.62,10.73-10.05,21.72-19.3,31.39-29.78,6.09-6.6,10.27-15,15.07-22.74.56-.9-.4-2.75-.66-4.16-1.34.79-3.16,1.27-3.91,2.44-2.05,3.22-3.41,6.87-5.45,10.09C90.29,348.5,77.87,360,65.06,371.29c-4.79,4.21-9.38,5.68-15.67,2.89,3.17-7.33,6.4-14.75,9.59-22.19s6.4-15.07,9.6-22.61l-1.72-1.29C65,330,62.48,331.65,61.41,334q-7.86,17-15,34.31c-1.93,4.69-4.18,7.93-9.88,7.9-2.33,0-4.68,1.48-7,2.29Zm540.33-5.94L570,374l8.12-5-1.18-1.69ZM274.58,396.84l-.08.16c-2.75,3.07-6.18,5.79-8,9.33-1.44,2.76-2.17,7.26-.82,9.65,1,1.86,6,2.79,8.81,2.19,21-4.48,36.75-15.69,44.19-36.74.47-1.34,1.66-3.22,2.76-3.4a44.9,44.9,0,0,1,11.38-.69c4,.37,4.8,3.13,2.28,6.27-.69.86-1.35,1.74-2,2.61,4.2-1,7.08-3.27,6.37-7.52-.68-4.09-4.32-4.86-7.7-5-3.78-.14-7.58.31-11.72.52.11-12.25-5.09-23-9.25-34a25.78,25.78,0,0,1-1.71-6.22c-2-18.6,17.79-37.11,36.32-33.78,3,.54,5.67,3.05,8.49,4.66a20.81,20.81,0,0,1-2.86,2.92c-3.26,2.25-7,3.93-9.87,6.59a47.34,47.34,0,0,0-9,11c-1.11,2-.87,6.17.54,7.66s5.57,1.54,7.54.45c4.24-2.34,7.84-5.83,11.7-8.85l.08-.15c.32-1.25,2.26-3-1-3.07l3.43-1,3.37-12.38c1.83-.56,3.93-1.07,5.92-1.84,1.78-.68,3.46-1.65,5.18-2.49a49.48,49.48,0,0,0-6.51-.57c-1.25,0-2.45,1.17-3.71,1.23-1.08.06-2.21-.7-3.32-1.1-1.45-5.72-5.79-7.23-11-7.4-14.43-.46-31.46,10.87-37.43,25.53-1.62,4-2.6,8.83-1.93,13,1.09,6.78,3.76,13.32,5.76,20,1.71,5.69,3.59,11.34,5.05,17.09.78,3-1,4.37-4,5.6-9.44,3.93-18.63,8.47-27.91,12.77ZM139,387.25c.79-1.67,1.6-3.33,2.27-5,0-.07-1.54-1.14-2-.93-2.08,1.06-4,2.4-6,3.63l.71.94,2.93-.71c.59,3.84-1.26,5.94-4.82,6.84l-.34-4c-4.25,4.36-3.9,9.42.46,12.63,1.14.83,1.85,2.25,2.76,3.39l-6,3.92c-2.13,1.32-4.52,2.36-6.27,4.06a4.63,4.63,0,0,0-.72,4.35c.58,1.07,2.74,1.94,4.08,1.79a69,69,0,0,0,9-2.11l3.94-2.76q7.36-6.94.16-13.88c-1.79-1.74-3.49-3.58-5.23-5.37C137.73,393.33,138.66,390.5,139,387.25Zm22,12.84-2.24,2.32-6.45,5.87a49.49,49.49,0,0,1,14.37-27L181,364c3.27-5.37,6.82-10.59,9.65-16.17.79-1.57-.56-4.21-.93-6.36-2,.5-4.28.5-5.8,1.6a27.24,27.24,0,0,0-5.79,6.13c-14,19.23-23.82,40.7-32.65,62.65-.57,1.42-.31,3.17-.44,4.77l1.61.82q6.27-6.56,12.53-13.13l3.05-3.17,3.47-1.23c-.63,3-1.38,5.16-1.52,7.4-.19,2.89,1.22,5.55,4.36,4.28,5.49-2.21,10.63-5.28,15.92-8l-.81-1.6-13.36,5.68-1.15-1.42c.62-2,1-4.09,1.92-5.88,1.58-2.91,3.74-5.52,5.33-8.43.68-1.27.56-3,.8-4.48-1.47.35-3.34.25-4.33,1.13C168.77,392.27,165,396.24,161.05,400.09ZM448,379.88c-4.07,1.2-7.32,5.38-13.06,3.35L443,367.29l-1.76-1.4-18.65,15.47-1.19-1.17c2-4.1,4.05-8.17,5.95-12.32a4,4,0,0,0,.06-2.73,2.29,2.29,0,0,0-2.06-.4c-7.29,6.69-14.5,13.47-21.73,20.24l1,1,11.68-10.27,1.21,1c-1.33,2.74-2.8,5.42-3.92,8.24a18.87,18.87,0,0,0-.65,4.5c1.51-.34,3.28-.31,4.48-1.12,2.75-1.84,5.22-4.1,7.82-6.17,2.32-1.85,4.68-3.66,7-5.49.13,2.23-.61,3.68-1.05,5.22-1.47,5.17.8,7.76,5.83,6,4-1.42,7.52-4.05,11.26-6.14l4.67-2.7c1.32,6.88,3,7.77,9.46,5,2.22-1,4.31-2.24,6.46-3.38-.12.43-.23.85-.34,1.27,1.88,1,4.29,3.38,5.56,2.87,5.65-2.28,11-5.36,16.42-8.16l-1-1.91c-2.25,1.19-4.45,2.47-6.75,3.53s-4.61,1.85-6.92,2.76l-1-1.23c1.06-2.92,2.13-5.83,3.2-8.75a8.65,8.65,0,0,0-4.36,2.23c-3,2.29-6,4.65-9.25,6.66a3.87,3.87,0,0,1-3.64-.17c-.72-.61-.85-2.42-.61-3.57,1.13-5.48,11.89-15.39,17.33-16.05a8.79,8.79,0,0,1,2.63.64c-.76,2.15-1.42,4-2.39,6.8,4.14-2.37,7.7-4.59,5.91-8.74-1.64-3.8-5.84-2.37-8.31-.81A186.73,186.73,0,0,0,459,370C455.11,373,451.63,376.56,448,379.88ZM114.27,412.7l-.49-1.8-8.92,2.15-.9-1.25,12.86-22.58L116,388c-1.27.69-2.86,1.1-3.77,2.12a38.88,38.88,0,0,0-5.72,7.5,133.79,133.79,0,0,0-7.26,15.66c-1.06,2.8.95,4.74,3.83,3.89C106.93,416.08,110.55,414.24,114.27,412.7Zm-17-19.85-.56-1.31c-1.35.42-3.42.43-3.92,1.33-3.72,6.65-7.39,13.36-10.52,20.3-1.46,3.23.89,5.64,4,4.26,3.55-1.55,6.67-4.1,10-6.21L95.53,410l-7,3.39L87,412.1Zm170.74,7c-2.27-1.5-3.63-3-4.31-2.73a8.83,8.83,0,0,0-3.73,3.27c-.2.3,1.79,2.9,2.34,2.76C264,402.72,265.43,401.47,268.05,399.85Z" transform="translate(-6 -279)"/><path class="cls-2" d="M29.52,378.46c2.33-.81,4.68-2.3,7-2.29,5.7,0,7.95-3.21,9.88-7.9q7.11-17.32,15-34.31c1.07-2.31,3.6-3.93,5.45-5.87l1.72,1.29c-3.2,7.54-6.38,15.08-9.6,22.61s-6.42,14.86-9.59,22.19c6.29,2.79,10.88,1.32,15.67-2.89C77.87,360,90.29,348.5,99.48,334c2-3.22,3.4-6.87,5.45-10.09.75-1.17,2.57-1.65,3.91-2.44.26,1.41,1.22,3.26.66,4.16-4.8,7.74-9,16.14-15.07,22.74C84.76,358.81,73.77,368.06,63,378.11c10.24,5.36,14.36,15,14.82,26.62.22,5.79-.56,11.4-5.17,16,.27-1.66.47-3.34.81-5,2.65-12.9-2.91-27.05-13.34-33-1.44-.83-3.77-.13-5.69-.12-.13,0-.26.21-.41.27-9,3.78-14.25,10.69-17.34,19.85A110.34,110.34,0,0,1,29,419.47c-1,1.87-3.36,3-5.1,4.5l-1.29-1.31,12.1-28.19c-4.4,1.12-7.85,2.07-11.35,2.85-3.34.74-7,1.3-8.83-2.43s.15-7.06,3.07-9.7a22.21,22.21,0,0,1,2-1.44l1.49,1.4-1.86,8.17c2.64.3,5.33,1.09,7.89.79,9-1,12.25-7.59,14.35-16.08l-10.66,1.79Zm24.35,1.65c-5.89-2.81-7.69-.48-8.6,5Z" transform="translate(-6 -279)"/><path class="cls-3" d="M283.92,389.84c9.28-4.3,18.47-8.84,27.91-12.77,3-1.23,4.77-2.55,4-5.6-1.46-5.75-3.34-11.4-5.05-17.09-2-6.64-4.67-13.18-5.76-20-.67-4.15.31-9,1.93-13,6-14.66,23-26,37.43-25.53,5.18.17,9.52,1.68,11,7.41l-1.48,1.62c-2.82-1.61-5.48-4.12-8.49-4.66-18.53-3.33-38.28,15.18-36.32,33.78a25.78,25.78,0,0,0,1.71,6.22c4.16,11,9.36,21.7,9.25,34,4.14-.21,7.94-.66,11.72-.52,3.38.13,7,.9,7.7,5,.71,4.25-2.17,6.5-6.37,7.52.67-.87,1.33-1.75,2-2.61,2.52-3.14,1.73-5.9-2.28-6.27a44.9,44.9,0,0,0-11.38.69c-1.1.18-2.29,2.06-2.76,3.4-7.44,21.05-23.14,32.26-44.19,36.74-2.81.6-7.76-.33-8.81-2.19-1.35-2.39-.62-6.89.82-9.65,1.84-3.54,5.27-6.26,8-9.32l.95,1.42c-1.61,2.11-3.59,4-4.7,6.38-.92,1.94-1.74,4.92-.86,6.41s4,2.15,6,2c12.81-.93,22.95-7.25,31.23-16.69a29.08,29.08,0,0,0,7.78-18.35l-29.58,13Z" transform="translate(-6 -279)"/><path class="cls-4" d="M159.17,404.31q-6.27,6.57-12.53,13.13l-1.61-.82c.13-1.6-.13-3.35.44-4.77,8.83-22,18.62-43.42,32.65-62.65a27.24,27.24,0,0,1,5.79-6.13c1.52-1.1,3.84-1.1,5.8-1.6.37,2.15,1.72,4.79.93,6.36-2.83,5.58-6.38,10.8-9.65,16.17l-1.13-1.24c7.69-13.15,7.69-13.15,6.13-18.42-9.45,10.08-14.65,22.28-21.09,33.68-1.84,2.46,0,2.87,1.83,3.23a49.49,49.49,0,0,0-14.37,27l6.45-5.87Z" transform="translate(-6 -279)"/><path class="cls-5" d="M448.27,381.71c-3.74,2.09-7.28,4.72-11.26,6.14-5,1.8-7.3-.79-5.83-6,.44-1.54,1.18-3,1.05-5.22-2.34,1.83-4.7,3.64-7,5.49-2.6,2.07-5.07,4.33-7.82,6.17-1.2.81-3,.78-4.48,1.12a18.87,18.87,0,0,1,.65-4.5c1.12-2.82,2.59-5.5,3.92-8.24l-1.21-1L404.59,386l-1-1c7.23-6.77,14.44-13.55,21.73-20.24a2.29,2.29,0,0,1,2.06.4,4,4,0,0,1-.06,2.73c-1.9,4.15-3.95,8.22-5.95,12.32l1.19,1.17,18.65-15.47,1.76,1.4-8.06,15.94c5.74,2,9-2.15,13.06-3.35C448.08,380.49,448.18,381.1,448.27,381.71Zm-26.07-.46c-.36-.28-.64-.61-.76-.56a4.48,4.48,0,0,0-1,.68c.22.16.48.49.66.46A4.06,4.06,0,0,0,422.2,381.25Zm-4.84-5.39.64-.36c-.11-.11-.25-.33-.33-.31a3.11,3.11,0,0,0-.67.31Z" transform="translate(-6 -279)"/><path class="cls-6" d="M448.27,381.71c-.09-.61-.19-1.22-.28-1.83,3.64-3.32,7.12-6.85,11-9.92a186.73,186.73,0,0,1,16.35-12c2.47-1.56,6.67-3,8.31.81,1.79,4.15-1.77,6.37-5.91,8.74,1-2.77,1.63-4.65,2.39-6.8a8.79,8.79,0,0,0-2.63-.64c-5.44.66-16.2,10.57-17.33,16.05-.24,1.15-.11,3,.61,3.57a3.87,3.87,0,0,0,3.64.17c3.22-2,6.22-4.37,9.25-6.66A8.65,8.65,0,0,1,478,371c-1.07,2.92-2.14,5.83-3.2,8.75l1,1.23c2.31-.91,4.67-1.73,6.92-2.76s4.5-2.34,6.75-3.53l1,1.91c-5.44,2.8-10.77,5.88-16.42,8.16-1.27.51-3.68-1.84-5.56-2.87.11-.42.22-.84.34-1.27-2.15,1.14-4.24,2.41-6.46,3.38-6.45,2.8-8.14,1.91-9.46-5Z" transform="translate(-6 -279)"/><path class="cls-4" d="M234.14,392.27c-2.56,2.6-2.63,5.79-.12,7.84,1.33,1.1,4.42.47,6.6,0s4-1.59,6-2.43l.87,1.91c-4.64,2.12-9.16,4.62-14,6.24-3,1-5.31-.86-6.35-4.07-.34-1.05-1.41-1.87-2.15-2.8l-1-1c1.3-2.17,3.1-4.19,3.81-6.54A132.2,132.2,0,0,1,247.87,352l1.35,1.42c-3.64,6.9-7.61,13.65-10.78,20.76-2.1,4.7-3,9.91-4.49,14.9l.09-.09-1,.91Z" transform="translate(-6 -279)"/><path class="cls-5" d="M521.69,371.59l5.9-5.19c-4.79-2.92-5.53-5.37-1.25-8.95,4.77-4,10.4-6.91,15.66-10.3,0,.6,0,1.21,0,1.81-5.37,2.88-10.51,6-13.82,12.69h9.51l.54,1.07c-2.7,2.24-5.68,4.23-8,6.81-1.48,1.63-2,4.13-3,6.24,2.29.35,4.73,1.38,6.82.91,3.34-.76,6.45-2.52,9.65-3.86l1.35,1.3c-5.66,2.39-11.17,5.26-17,7-3.44,1-7.42.28-7.21-5.17,0-.31-1.2-.67-1.85-1l.86-2.46,1.65-.65.6.55Z" transform="translate(-6 -279)"/><path class="cls-7" d="M353.86,304.94l1.48-1.62c1.11.39,2.24,1.15,3.32,1.09,1.26-.06,2.46-1.2,3.71-1.23a49.48,49.48,0,0,1,6.51.57c-1.72.84-3.4,1.81-5.18,2.49-2,.77-4.09,1.28-5.92,1.84-1.15,4.22-2.26,8.3-3.35,12.36,0-3.61,0-7.19,0-12.38-5.69,4.35-10.82,7.87-15.42,12-1.82,1.62-2.92,4.46-3.51,6.95-.89,3.79,1.3,5.61,4.76,3.89,2.89-1.45,5.23-4,8-5.73.94-.6,2.44-.34,3.69-.47-3.86,3-7.46,6.51-11.7,8.85-2,1.09-6.22.94-7.54-.45s-1.65-5.69-.54-7.66a47.34,47.34,0,0,1,9-11c2.85-2.66,6.61-4.34,9.87-6.59A20.81,20.81,0,0,0,353.86,304.94Z" transform="translate(-6 -279)"/><path class="cls-8" d="M367,382c2.66-2.13,3.46-4.63,3-8.21-.82-6.55,6.37-12.83,12.9-11.81,3.38.53,5.37,2.42,5.42,6-.21.9-.43,1.81-.81,3.45-1.37-5.07-4.46-6.9-8.71-6-3.66.81-6.83,2.62-6.66,7.23l3.13,2.36c.61,1.57.78,3.74,1.93,4.59,2,1.51,4.52,3.66,7.29.89l-.45,3.79c-2.32,2.34-4.32,5.23-7.06,6.87-2.56,1.53-5.91,1.72-8.92,2.51L367,384.92Zm3.76-1.95c.74,4,1.25,6.87,1.76,9.7l9.57-4.75Z" transform="translate(-6 -279)"/><path class="cls-3" d="M224,398l1,1c-3.84,2.56-7.5,5.47-11.59,7.55a11.5,11.5,0,0,1-7.44.66c-.74-.18-.59-4-.85-6.18h-.07c0-.72-.05-1.44-.07-2.15l-1.42-1.05c5.39-6.25,10.76-12.52,16.24-18.69.29-.33,1.49.16,2.9.35l-13.21,23.11,1.66,1.74Z" transform="translate(-6 -279)"/><path class="cls-9" d="M352,324.68c-1.25.13-2.75-.13-3.69.47-2.76,1.76-5.1,4.28-8,5.73-3.46,1.72-5.65-.1-4.76-3.89.59-2.49,1.69-5.33,3.51-6.95,4.6-4.11,9.73-7.63,15.42-12,0,5.19,0,8.77,0,12.38l-3.45,1c-.43,1.29-2.18,3,1,3.07Z" transform="translate(-6 -279)"/><path class="cls-4" d="M161.05,400.09c3.91-3.85,7.72-7.82,11.8-11.49,1-.88,2.86-.78,4.33-1.13-.24,1.5-.12,3.21-.8,4.48-1.59,2.91-3.75,5.52-5.33,8.43-1,1.79-1.3,3.91-1.92,5.88l1.15,1.42L183.64,402l.81,1.6c-5.29,2.71-10.43,5.78-15.92,8-3.14,1.27-4.55-1.39-4.36-4.28.14-2.24.89-4.44,1.52-7.4l-3.47,1.23Zm4.32-.85-.35.35.36.34.35-.52Z" transform="translate(-6 -279)"/><path class="cls-10" d="M367,382v2.93c-5.1.86-10.51,1-13.73,6.12a4.75,4.75,0,0,1-1.05,1c-3.2,2.56-6.3,5.94-10.9,4-2.87-1.23-2.54-6.84-.1-12.4,1.05-2.4,1.34-5.14,2-7.73l.85-4.85,0,0c.37.45.74.9,1.1,1.36l3.27,4.4c-2.18,2.82.19,4.61,3.52,6.33,3.74,1.94,5.42.3,6.57-3.06.16-.48,1-.73,1.51-1.09l-1,5.66Zm-22.73.57,1.17,9.29,9.89-4.3Z" transform="translate(-6 -279)"/><path class="cls-5" d="M567.14,347c-1.33,1.43-2.66,2.86-4,4.31q-2.88,3.17-5.74,6.35c.22.5.44,1,.67,1.5l9.39.49c-3.54,3.09-6.66,5.6-9.51,8.38-2.22,2.17-3.57,4.66,0,6.95h3l6.83-1.86c-1.65,3.78-8.52,6.45-13.17,5.8-3.5-.48-4.54-2.78-4.57-5.9H550l1.53-2.07,2.58-2.83,1.92-3,.12-.08,3.52-1.86c-.09-.36-.18-.73-.28-1.1L556,363c-3.51-.69-4.8-3.4-2.53-5.59,4.07-3.92,9-6.95,13.59-10.35Z" transform="translate(-6 -279)"/><path class="cls-4" d="M114.27,412.7c-3.72,1.54-7.34,3.38-11.18,4.5-2.88.85-4.89-1.09-3.83-3.89a133.79,133.79,0,0,1,7.26-15.66,38.88,38.88,0,0,1,5.72-7.5c.91-1,2.5-1.43,3.77-2.12l.81,1.19L104,411.8l.9,1.25,8.92-2.15Z" transform="translate(-6 -279)"/><path class="cls-11" d="M360,379c-.52.36-1.35.61-1.51,1.09-1.15,3.36-2.83,5-6.57,3.06-3.33-1.72-5.7-3.51-3.52-6.33l-3.27-4.4c2.75-1.57,5.42-4.17,8.27-4.39,2.47-.2,5.14,2.32,7.55,3.54l.4-2.58C365,372.86,362.64,375.94,360,379Z" transform="translate(-6 -279)"/><path class="cls-12" d="M372.15,372.69c-.17-4.61,3-6.42,6.66-7.23,4.25-.93,7.34.9,8.71,6,.38-1.64.6-2.55.81-3.45,2.48,3,1.46,8.19-2.19,11l-1.53,1.58h-.11c-2.77,2.77-5.25.62-7.29-.89-1.15-.85-1.32-3-1.93-4.59l7.06-7.1-.94-1.09c-1.66,1.2-3.27,2.47-5,3.57C375.06,371.29,373.57,371.94,372.15,372.69Z" transform="translate(-6 -279)"/><path class="cls-4" d="M199,403.93c-1.31,1-2.5,2.3-4,2.88a36.07,36.07,0,0,1-6,1.3c-.31-1.8-.58-3.6-.92-5.38-.27-1.38-.61-2.74.17-3.42,3.06-4.74,6-9.57,9.28-14.15,1-1.38,2.92-2.07,4.42-3.08l1.06,1.38-10.36,19.12,1.15,1.15,4-.88Z" transform="translate(-6 -279)"/><path class="cls-3" d="M97.31,392.85,87,412.1l1.5,1.24,7-3.39.79,1.27c-3.3,2.11-6.42,4.66-10,6.21-3.15,1.38-5.5-1-4-4.26,3.13-6.94,6.8-13.65,10.52-20.3.5-.9,2.57-.91,3.92-1.33Z" transform="translate(-6 -279)"/><path class="cls-4" d="M397.07,378.07c2.39-2.4,4.7-4.88,7.22-7.14a2.91,2.91,0,0,1,2.6.06,2.32,2.32,0,0,1,.45,2.18c-2.85,6.38-5.7,12.76-8.87,19-.54,1.07-2.58,1.37-3.93,2,.11-1.59-.19-3.37.42-4.73,1.74-3.86,3.85-7.55,6.25-12.14L397,378Z" transform="translate(-6 -279)"/><path class="cls-13" d="M135,404c-.91-1.14-1.62-2.56-2.76-3.39-4.36-3.21-4.71-8.27-.46-12.63l.34,4,1.79,2c1.74,1.79,3.44,3.63,5.23,5.37q7.19,6.94-.16,13.88l-1.82-.62C140.58,408.74,137.25,406.52,135,404Z" transform="translate(-6 -279)"/><path class="cls-14" d="M234.14,392.27c-.36-.8-.71-1.61-1.07-2.42l1-.91L234,389a24,24,0,0,0,3.64-3.13c8.18-10.6,16.26-21.26,24.37-31.91h2A171.75,171.75,0,0,1,234.14,392.27Z" transform="translate(-6 -279)"/><path class="cls-3" d="M519.85,372.47l-.86,2.46c-3.81,2.25-7.49,4.77-11.48,6.63-1.45.67-4.36.41-5.3-.61s-1.18-4-.43-5.41c1.63-3.07,4.08-5.7,6.19-8.51l-.06,0c-.54,2.18-1.23,4.33-1.55,6.54-.17,1.2-.07,3.22.6,3.58A5.23,5.23,0,0,0,511,377C514.05,375.71,516.92,374,519.85,372.47Z" transform="translate(-6 -279)"/><path class="cls-12" d="M135,404c2.21,2.51,5.54,4.73,2.16,8.63l1.82.62L135.08,416a33.06,33.06,0,0,0-4.88-.86c-3.69-.13-4.27-1.77-2.6-4.73.47-.84.94-1.67,1.42-2.5Z" transform="translate(-6 -279)"/><path class="cls-10" d="M264,354h-2c2.25-5.47,6.47-10.4,4.69-17.58l-4.26,1-1.32-.93c3.17-1.28,7.4-4.48,9.27-3.44,3.89,2.17,1.05,6.57-.24,9.7C268.5,346.69,266.07,350.27,264,354Z" transform="translate(-6 -279)"/><path class="cls-15" d="M511.37,363.05a36.37,36.37,0,0,1-5.84-1.57c-2.41-1.09-5.4-2.13-6.63-4.13-.76-1.22,1.31-4.19,2.11-6.37.51,5.51,1,5.84,8.36,5.77a13.63,13.63,0,0,0,2.43,1c4.1.85,4.29,2.68,1.42,5.35Z" transform="translate(-6 -279)"/><path class="cls-11" d="M509.37,356.75c-7.38.07-7.85-.26-8.36-5.77q1.47-2,2.95-4c6.17.26,6.14.26,5.05,6.14-.1.54.64,1.24,1,1.86Z" transform="translate(-6 -279)"/><path class="cls-6" d="M129,407.93c-.48.83-1,1.66-1.42,2.5-1.67,3-1.09,4.6,2.6,4.73a33.06,33.06,0,0,1,4.88.86,69,69,0,0,1-9,2.11c-1.34.15-3.5-.72-4.08-1.79a4.63,4.63,0,0,1,.72-4.35C124.5,410.29,126.89,409.25,129,407.93Z" transform="translate(-6 -279)"/><path class="cls-16" d="M567.14,347h-.07c3.42-1.31,6.8-2.76,10.3-3.83a3.18,3.18,0,0,1,2.79,1.38,3.31,3.31,0,0,1-.79,3,77.73,77.73,0,0,1-6.18,4.74l-.91-1.11,3.16-5Z" transform="translate(-6 -279)"/><path class="cls-17" d="M361.39,369l-.4,2.58c-2.41-1.22-5.08-3.74-7.55-3.54-2.85.22-5.52,2.82-8.27,4.39-.36-.46-.73-.91-1.1-1.36,1.9-4.57,5.8-6.43,10.28-6.9A6.13,6.13,0,0,1,361.39,369Z" transform="translate(-6 -279)"/><path class="cls-7" d="M542,349c0-.6,0-1.21,0-1.81a2.26,2.26,0,0,1,.44-.22c3-.82,6.36-3.07,8.94.39,1.3,1.75-3,5.58-8,7l2.55-4.82Z" transform="translate(-6 -279)"/><path class="cls-14" d="M179.86,362.76,181,364l-14.26,17.25c-1.87-.36-3.67-.77-1.83-3.23,1.47-.8,3.29-1.29,4.33-2.47C172.92,371.41,176.34,367,179.86,362.76Z" transform="translate(-6 -279)"/><path class="cls-17" d="M510,355c-.35-.62-1.09-1.32-1-1.86,1.09-5.88,1.12-5.88-5.05-6.14l7.18-2.78c.18,2.6.53,5.19.45,7.78C511.56,353,510.56,354,510,355Z" transform="translate(-6 -279)"/><path class="cls-13" d="M268.05,399.85c-2.62,1.62-4.05,2.87-5.7,3.3-.55.14-2.54-2.46-2.34-2.76a8.83,8.83,0,0,1,3.73-3.27C264.42,396.86,265.78,398.35,268.05,399.85Z" transform="translate(-6 -279)"/><path class="cls-14" d="M137,385.14l-2.93.71-.71-.94c2-1.23,3.93-2.57,6-3.63.41-.21,2,.86,2,.93-.67,1.71-1.48,3.37-2.27,5C138.35,386.55,137.66,385.85,137,385.14Z" transform="translate(-6 -279)"/><path class="cls-18" d="M384.05,384.32l.45-3.79.11,0,1.25.49a.3.3,0,0,1,.49-.09l.64.76,10.08-3.64L397,378C394.44,383.71,389,383.41,384.05,384.32Z" transform="translate(-6 -279)"/><path class="cls-19" d="M283.92,389.84l1.42,1.36L276,398l-1.42-1.16Z" transform="translate(-6 -279)"/><path class="cls-20" d="M249.22,353.37,247.87,352l8-10.22c.14.62.27,1.25.41,1.87Z" transform="translate(-6 -279)"/><path class="cls-18" d="M554.15,368.15,551.57,371,550,373.05h.05l-5,1.08-1.35-1.3,7.31-4.75,2.84-.15Z" transform="translate(-6 -279)"/><path class="cls-21" d="M568.33,373.07l8.61-5.75,1.18,1.69L570,374Z" transform="translate(-6 -279)"/><path class="cls-22" d="M137,385.14l2.05,2.11c-.37,3.25-1.3,6.08-5.08,6.76l-1.79-2C135.72,391.08,137.57,389,137,385.14Z" transform="translate(-6 -279)"/><path class="cls-14" d="M21.07,385.15l-1.49-1.4L28,379V381Z" transform="translate(-6 -279)"/><path class="cls-14" d="M199,403.93l-1.22-1.08,5.82-5,1.42,1.05c0,.71.05,1.43.07,2.15h.07Z" transform="translate(-6 -279)"/><path class="cls-3" d="M511.37,363.05l1.85,0L507.91,367l.06,0Z" transform="translate(-6 -279)"/><path class="cls-18" d="M556,363l3.42-.87c.1.37.19.74.28,1.1l-3.52,1.86Z" transform="translate(-6 -279)"/><path class="cls-18" d="M161.05,400.09l1.17,1.05-3.05,3.17-.36-1.9Z" transform="translate(-6 -279)"/><path class="cls-17" d="M344,371.08l-.85,4.85Z" transform="translate(-6 -279)"/><path class="cls-18" d="M556.07,365.14l-1.92,3-.28-.23-1-1Z" transform="translate(-6 -279)"/><path class="cls-21" d="M561,375h0Z" transform="translate(-6 -279)"/><path class="cls-2" d="M28,381V379l1.52-.55,1.27,1.36Z" transform="translate(-6 -279)"/><path class="cls-21" d="M552.86,366.92l1,1-2.84.15Z" transform="translate(-6 -279)"/><path class="cls-10" d="M256.28,343.6c-.14-.62-.27-1.25-.41-1.87l.89-1,1.12.94Z" transform="translate(-6 -279)"/><path class="cls-8" d="M385.86,381l-1.25-.49,1.53-1.59C386.05,379.65,386,380.34,385.86,381Z" transform="translate(-6 -279)"/><path class="cls-10" d="M258.73,338.7l1.84-1.66.66,1.2-1.53,1.56Z" transform="translate(-6 -279)"/><path class="cls-20" d="M352,324.53c-3.23,0-1.48-1.78-1-3.07C354.29,321.48,352.35,323.28,352,324.53Z" transform="translate(-6 -279)"/><path class="cls-12" d="M387,381.71l-.64-.76Z" transform="translate(-6 -279)"/><path class="cls-10" d="M256.76,340.78l1-1,1,1-.88,1Z" transform="translate(-6 -279)"/><path class="cls-10" d="M257.73,339.74l1-1,1,1.1-.94.95Z" transform="translate(-6 -279)"/><path class="cls-5" d="M568.33,373.07c.56.31,1.12.62,1.67.94Z" transform="translate(-6 -279)"/><path class="cls-3" d="M274.58,396.84,276,398a.58.58,0,0,1-.55.43L274.5,397Z" transform="translate(-6 -279)"/><path class="cls-10" d="M260.57,337a3.64,3.64,0,0,1,.51-.53l1.31.93-1.16.8Z" transform="translate(-6 -279)"/><path class="cls-9" d="M28,381l2.8-1.13L41.45,378c-2.1,8.49-5.32,15.05-14.35,16.08-2.56.3-5.25-.49-7.89-.79l1.86-8.17Z" transform="translate(-6 -279)"/><path class="cls-22" d="M53.87,380.11l-8.6,5C46.18,379.63,48,377.3,53.87,380.11Z" transform="translate(-6 -279)"/><path class="cls-23" d="M275.45,398.43A.58.58,0,0,0,276,398l9.34-6.8,29.58-13a29.08,29.08,0,0,1-7.78,18.35c-8.28,9.44-18.42,15.76-31.23,16.69-2.05.15-5.2-.6-6-2s-.06-4.47.86-6.41C271.86,402.47,273.84,400.54,275.45,398.43Z" transform="translate(-6 -279)"/><path class="cls-24" d="M179.86,362.76c-3.52,4.28-6.94,8.65-10.63,12.79-1,1.18-2.86,1.67-4.33,2.47,6.44-11.4,11.64-23.6,21.09-33.68C187.55,349.61,187.55,349.61,179.86,362.76Z" transform="translate(-6 -279)"/><path class="cls-1" d="M422.2,381.25a4.06,4.06,0,0,1-1.07.58c-.18,0-.44-.3-.66-.46a4.48,4.48,0,0,1,1-.68C421.56,380.64,421.84,381,422.2,381.25Z" transform="translate(-6 -279)"/><path class="cls-1" d="M417.36,375.86l-.36-.36a3.11,3.11,0,0,1,.67-.31c.08,0,.22.2.33.31Z" transform="translate(-6 -279)"/><path class="cls-25" d="M261.23,338.24l1.16-.8,4.26-1c1.78,7.18-2.44,12.11-4.69,17.58-8.11,10.65-16.19,21.31-24.37,31.91A24,24,0,0,1,234,389c1.45-5,2.39-10.2,4.49-14.9,3.17-7.11,7.14-13.86,10.78-20.76l7.06-9.77,1.6-1.88.88-1,.94-.95Z" transform="translate(-6 -279)"/><path class="cls-25" d="M234,388.94l-1,.91Z" transform="translate(-6 -279)"/><path class="cls-3" d="M521.69,371.59l.41.78-.6-.55Z" transform="translate(-6 -279)"/><path class="cls-22" d="M370.76,380,382.09,385l-9.57,4.75C372,386.91,371.5,384.08,370.76,380Z" transform="translate(-6 -279)"/><path class="cls-18" d="M372.15,372.69c1.42-.75,2.91-1.4,4.26-2.26,1.72-1.1,3.33-2.37,5-3.57l.94,1.09-7.06,7.1Z" transform="translate(-6 -279)"/><path class="cls-1" d="M205.05,401c0-.72-.05-1.44-.07-2.15C205,399.6,205,400.32,205.05,401Z" transform="translate(-6 -279)"/><path class="cls-1" d="M165.37,399.24l.36.17-.35.52-.36-.34Z" transform="translate(-6 -279)"/><path class="cls-22" d="M344.27,382.56l11.06,5-9.89,4.3Z" transform="translate(-6 -279)"/><path class="cls-1" d="M550,373.05l1.53-2.07Z" transform="translate(-6 -279)"/></svg>