<svg width="24" height="25" viewBox="0 0 24 25" fill="none" xmlns="http://www.w3.org/2000/svg">
<path d="M11.9843 -0.00781222C11.853 -0.00576385 11.7234 0.0221312 11.6028 0.0742803C11.4823 0.126429 11.3732 0.201811 11.2818 0.296121C11.1904 0.390431 11.1185 0.501822 11.0701 0.623935C11.0217 0.746047 10.9979 0.876489 11 1.00781V4.00781C10.9981 4.14032 11.0226 4.27189 11.072 4.39486C11.1214 4.51782 11.1948 4.62974 11.2878 4.72411C11.3808 4.81848 11.4917 4.89342 11.614 4.94457C11.7362 4.99571 11.8674 5.02205 12 5.02205C12.1325 5.02205 12.2637 4.99571 12.3859 4.94457C12.5082 4.89342 12.6191 4.81848 12.7121 4.72411C12.8052 4.62974 12.8785 4.51782 12.9279 4.39486C12.9774 4.27189 13.0018 4.14032 13 4.00781V1.00781C13.0021 0.87386 12.9772 0.740852 12.9269 0.616684C12.8766 0.492516 12.8019 0.379719 12.7072 0.284989C12.6124 0.190259 12.4996 0.115527 12.3755 0.065229C12.2513 0.014931 12.1183 -0.0099076 11.9843 -0.00781222V-0.00781222ZM4.21676 3.2168C4.01783 3.21685 3.82343 3.27623 3.65842 3.38734C3.49341 3.49845 3.36529 3.65625 3.29043 3.84056C3.21557 4.02488 3.19738 4.22733 3.23818 4.42203C3.27899 4.61673 3.37693 4.79485 3.51949 4.93359L5.64058 7.05469C5.73273 7.15064 5.8431 7.22724 5.96522 7.28001C6.08735 7.33277 6.21877 7.36064 6.3518 7.36199C6.48483 7.36333 6.61679 7.33812 6.73995 7.28783C6.86311 7.23754 6.97501 7.16319 7.06908 7.06912C7.16315 6.97505 7.2375 6.86316 7.28779 6.73999C7.33808 6.61683 7.36329 6.48487 7.36195 6.35184C7.36061 6.21881 7.33274 6.08739 7.27997 5.96527C7.2272 5.84314 7.1506 5.73278 7.05465 5.64062L4.93355 3.51953C4.84036 3.42374 4.72892 3.34759 4.60581 3.2956C4.48269 3.2436 4.35041 3.21681 4.21676 3.2168V3.2168ZM19.7539 3.2168C19.4941 3.22454 19.2475 3.33312 19.0664 3.51953L16.9453 5.64062C16.8493 5.73278 16.7727 5.84314 16.72 5.96527C16.6672 6.08739 16.6393 6.21881 16.638 6.35184C16.6366 6.48487 16.6618 6.61683 16.7121 6.73999C16.7624 6.86316 16.8368 6.97505 16.9308 7.06912C17.0249 7.16319 17.1368 7.23754 17.26 7.28783C17.3831 7.33812 17.5151 7.36333 17.6481 7.36199C17.7812 7.36064 17.9126 7.33277 18.0347 7.28001C18.1568 7.22724 18.2672 7.15064 18.3593 7.05469L20.4804 4.93359C20.6249 4.79313 20.7236 4.61229 20.7636 4.41477C20.8036 4.21725 20.7829 4.01227 20.7044 3.82668C20.6258 3.6411 20.4931 3.48357 20.3234 3.37474C20.1538 3.26591 19.9553 3.21086 19.7539 3.2168V3.2168ZM12 6.00781C8.6981 6.00781 5.99996 8.70595 5.99996 12.0078C5.99996 15.3097 8.6981 18.0078 12 18.0078C15.3018 18.0078 18 15.3097 18 12.0078C18 8.70595 15.3018 6.00781 12 6.00781V6.00781ZM12 8.00781C14.2209 8.00781 16 9.78683 16 12.0078C16 14.2288 14.2209 16.0078 12 16.0078C9.77898 16.0078 7.99996 14.2288 7.99996 12.0078C7.99996 9.78683 9.77898 8.00781 12 8.00781V8.00781ZM1.00777 11C0.875261 10.9981 0.743698 11.0226 0.62073 11.072C0.497761 11.1214 0.38584 11.1948 0.291471 11.2878C0.197101 11.3809 0.122165 11.4918 0.0710172 11.614C0.0198695 11.7363 -0.00646973 11.8675 -0.00646973 12C-0.00646973 12.1325 0.0198695 12.2637 0.0710172 12.386C0.122165 12.5082 0.197101 12.6191 0.291471 12.7122C0.38584 12.8052 0.497761 12.8786 0.62073 12.928C0.743698 12.9774 0.875261 13.0019 1.00777 13H4.00777C4.14028 13.0019 4.27185 12.9774 4.39482 12.928C4.51778 12.8786 4.62971 12.8052 4.72407 12.7122C4.81844 12.6191 4.89338 12.5082 4.94453 12.386C4.99568 12.2637 5.02202 12.1325 5.02202 12C5.02202 11.8675 4.99568 11.7363 4.94453 11.614C4.89338 11.4918 4.81844 11.3809 4.72407 11.2878C4.62971 11.1948 4.51778 11.1214 4.39482 11.072C4.27185 11.0226 4.14028 10.9981 4.00777 11H1.00777ZM19.9922 11C19.8596 10.9981 19.7281 11.0226 19.6051 11.072C19.4821 11.1214 19.3702 11.1948 19.2759 11.2878C19.1815 11.3809 19.1065 11.4918 19.0554 11.614C19.0042 11.7363 18.9779 11.8675 18.9779 12C18.9779 12.1325 19.0042 12.2637 19.0554 12.386C19.1065 12.5082 19.1815 12.6191 19.2759 12.7122C19.3702 12.8052 19.4821 12.8786 19.6051 12.928C19.7281 12.9774 19.8596 13.0019 19.9922 13H22.9922C23.1247 13.0019 23.2562 12.9774 23.3792 12.928C23.5022 12.8786 23.6141 12.8052 23.7085 12.7122C23.8028 12.6191 23.8778 12.5082 23.9289 12.386C23.9801 12.2637 24.0064 12.1325 24.0064 12C24.0064 11.8675 23.9801 11.7363 23.9289 11.614C23.8778 11.4918 23.8028 11.3809 23.7085 11.2878C23.6141 11.1948 23.5022 11.1214 23.3792 11.072C23.2562 11.0226 23.1247 10.9981 22.9922 11H19.9922ZM6.32808 16.6426C6.06828 16.6503 5.8217 16.7589 5.64058 16.9453L3.51949 19.0664C3.42352 19.1586 3.34689 19.2689 3.2941 19.391C3.24131 19.5132 3.21342 19.6446 3.21207 19.7777C3.21071 19.9107 3.23592 20.0427 3.28621 20.1659C3.3365 20.289 3.41086 20.4009 3.50494 20.495C3.59902 20.5891 3.71093 20.6635 3.83411 20.7138C3.95728 20.764 4.08926 20.7892 4.2223 20.7879C4.35535 20.7865 4.48678 20.7586 4.60891 20.7059C4.73104 20.6531 4.84141 20.5764 4.93355 20.4805L7.05465 18.3594C7.19916 18.2189 7.29785 18.0381 7.33781 17.8405C7.37777 17.643 7.35713 17.438 7.27859 17.2525C7.20004 17.0669 7.06727 16.9093 6.89766 16.8005C6.72805 16.6917 6.52952 16.6366 6.32808 16.6426ZM17.6406 16.6426C17.4418 16.643 17.2477 16.7027 17.083 16.8139C16.9183 16.9252 16.7904 17.083 16.7158 17.2673C16.6412 17.4515 16.6232 17.6538 16.6641 17.8483C16.7049 18.0428 16.8028 18.2207 16.9453 18.3594L19.0664 20.4805C19.1585 20.5764 19.2689 20.6531 19.391 20.7059C19.5131 20.7586 19.6446 20.7865 19.7776 20.7879C19.9107 20.7892 20.0426 20.764 20.1658 20.7138C20.289 20.6635 20.4009 20.5891 20.495 20.495C20.5891 20.4009 20.6634 20.289 20.7137 20.1659C20.764 20.0427 20.7892 19.9107 20.7879 19.7777C20.7865 19.6446 20.7586 19.5132 20.7058 19.391C20.653 19.2689 20.5764 19.1586 20.4804 19.0664L18.3593 16.9453C18.2659 16.8493 18.1542 16.773 18.0307 16.721C17.9072 16.669 17.7746 16.6423 17.6406 16.6426V16.6426ZM11.9843 18.9785C11.7195 18.9827 11.4671 19.0917 11.2825 19.2818C11.0979 19.4718 10.9963 19.7273 11 19.9922V22.9922C10.9981 23.1247 11.0226 23.2563 11.072 23.3792C11.1214 23.5022 11.1948 23.6141 11.2878 23.7085C11.3808 23.8029 11.4917 23.8778 11.614 23.9289C11.7362 23.9801 11.8674 24.0064 12 24.0064C12.1325 24.0064 12.2637 23.9801 12.3859 23.9289C12.5082 23.8778 12.6191 23.8029 12.7121 23.7085C12.8052 23.6141 12.8785 23.5022 12.9279 23.3792C12.9774 23.2563 13.0018 23.1247 13 22.9922V19.9922C13.0018 19.8584 12.9768 19.7256 12.9263 19.6017C12.8759 19.4777 12.8012 19.3652 12.7065 19.2706C12.6118 19.1761 12.499 19.1016 12.375 19.0514C12.251 19.0012 12.1181 18.9764 11.9843 18.9785V18.9785Z" fill="black"/>
</svg>
