<svg width="699" height="699" viewBox="0 0 699 699" fill="none" xmlns="http://www.w3.org/2000/svg">
<path d="M349.667 698.4C157.173 698.4 0.600098 541.827 0.600098 349.333C0.600098 156.84 157.173 0.266602 349.667 0.266602C542.16 0.266602 698.733 156.84 698.733 349.333C698.733 541.827 542.16 698.4 349.667 698.4V698.4ZM349.667 37.5999C177.787 37.5999 37.9334 177.453 37.9334 349.333C37.9334 521.213 177.787 661.067 349.667 661.067C521.547 661.067 661.4 521.213 661.4 349.333C661.4 177.453 521.547 37.5999 349.667 37.5999V37.5999Z" fill="black"/>
<path d="M349.667 136.16C371.172 136.16 388.64 153.633 388.64 175.133C388.64 196.639 371.167 214.107 349.667 214.107C328.161 214.107 310.693 196.633 310.693 175.133C310.693 153.628 328.163 136.16 349.667 136.16M349.667 113.759C315.844 113.759 288.292 141.311 288.292 175.133C288.292 208.956 315.844 236.508 349.667 236.508C383.489 236.508 411.041 208.956 411.041 175.133C411.041 141.311 383.489 113.759 349.667 113.759Z" fill="black"/>
<path d="M493.627 255.547C502.512 255.547 510.575 263.609 512.069 274.511C513.71 286.235 507.215 296.912 497.585 298.256L384.465 314.235V385.615L445.471 532.855C450.023 543.756 444.726 556.448 433.825 560.928C431.137 562.048 428.372 562.569 425.684 562.569C417.247 562.569 409.184 557.564 405.747 549.277L349.668 413.984L293.595 549.277C290.163 557.563 282.095 562.569 273.658 562.569C270.897 562.569 268.132 562.048 265.517 560.928C254.616 556.376 249.386 543.756 253.871 532.855L314.876 385.615L314.871 314.229L201.751 298.323C192.121 296.979 185.548 286.302 187.267 274.577C188.762 263.676 196.897 255.613 205.71 255.613C206.382 255.613 207.054 255.686 207.725 255.764L316.965 271.144H382.372L491.612 255.764C492.284 255.613 492.956 255.54 493.628 255.54M493.628 233.139C491.909 233.139 490.195 233.29 488.477 233.514L380.731 248.67H318.461L210.715 233.514C208.996 233.29 207.283 233.139 205.564 233.139C185.482 233.139 168.007 249.566 164.944 271.368C161.585 295.338 176.668 317.363 198.543 320.426L292.398 333.639V381.129L233.19 524.195C228.71 535.024 228.71 546.966 233.19 557.794C237.669 568.622 246.106 577.059 256.935 581.539C262.31 583.779 267.909 584.899 273.659 584.899C291.503 584.899 307.482 574.295 314.279 557.795L349.67 472.451L384.987 557.795C391.784 574.221 407.758 584.899 425.607 584.899C431.357 584.899 437.029 583.779 442.331 581.539C464.654 572.279 475.336 546.518 466.076 524.195L406.79 381.062V333.646L500.644 320.432C511.92 318.865 521.926 312.146 528.123 301.917C533.576 293.031 535.737 282.13 534.248 271.38C531.258 249.646 513.789 233.146 493.628 233.146L493.628 233.139Z" fill="black"/>
</svg>
