<svg width="63" height="62" viewBox="0 0 63 62" fill="current" xmlns="http://www.w3.org/2000/svg">
<path d="M52 8C52.551 8 53 8.449 53 9H55C55 7.698 54.161 6.598 53 6.184V4H51V6.184C49.839 6.598 49 7.698 49 9C49 10.654 50.346 12 52 12C52.551 12 53 12.449 53 13C53 13.551 52.551 14 52 14C51.449 14 51 13.551 51 13H49C49 14.302 49.839 15.402 51 15.816V18H53V15.816C54.161 15.402 55 14.302 55 13C55 11.346 53.654 10 52 10C51.449 10 51 9.551 51 9C51 8.449 51.449 8 52 8Z" fill="black"/>
<path d="M62.9998 10.9998C62.9998 7.8758 61.6638 4.8878 59.3348 2.8028C57.0078 0.7198 53.8798 -0.2742 50.7488 0.0698002C45.6318 0.6358 41.5548 4.7698 41.0538 9.8998C40.6648 13.8788 42.4868 17.7368 45.7228 20.0008H43.9998V22.0008H45.9998V26.0008H57.9998V22.0008H59.9998V20.0008H58.2808C61.2058 17.9528 62.9998 14.5918 62.9998 10.9998ZM55.9998 23.9998H47.9998V21.9998H55.9998V23.9998ZM56.4988 18.7858L55.9998 19.0748V19.9998H47.9998V19.0748L47.5008 18.7858C44.4028 16.9918 42.6958 13.6608 43.0438 10.0928C43.4538 5.8988 46.7868 2.5198 50.9688 2.0568C53.5748 1.7648 56.0698 2.5628 58.0008 4.2918C59.9068 5.9988 60.9998 8.4438 60.9998 10.9998C60.9998 14.1938 59.2748 17.1778 56.4988 18.7858Z" fill="black"/>
<path d="M39.1798 47.349L31.1598 46.279C33.8388 44.667 35.8348 42.045 36.6208 38.937C39.0828 38.627 40.9998 36.544 40.9998 34V25C40.9998 16.178 33.8218 9 24.9998 9C16.1778 9 8.99979 16.178 8.99979 25V34C8.99979 36.544 10.9168 38.627 13.3788 38.937C14.1648 42.044 16.1608 44.667 18.8398 46.279L10.8198 47.349C7.43579 47.8 4.55079 50.185 3.47079 53.423L0.612793 62H49.3868L46.5288 53.423C45.4488 50.185 42.5638 47.8 39.1798 47.349ZM30.8238 56.636L26.4148 59.974L30.2498 48.921L31.7718 51.813L29.8558 53.729L30.8238 56.636ZM18.2278 51.813L19.5788 49.247L23.1998 59.681L19.1768 56.635L20.1448 53.729L18.2278 51.813ZM24.9998 50C23.5588 50 22.3538 48.979 22.0668 47.622C23.0068 47.86 23.9868 48 24.9998 48C26.0128 48 26.9928 47.86 27.9328 47.622C27.6458 48.979 26.4408 50 24.9998 50ZM27.2558 51.447L24.8578 58.359L22.3908 51.249C23.1518 51.719 24.0418 52 24.9998 52C25.8138 52 26.5758 51.793 27.2558 51.447ZM36.9578 36.829C36.9768 36.554 36.9998 36.28 36.9998 36V31.184C38.1608 31.598 38.9998 32.698 38.9998 34C38.9998 35.317 38.1408 36.427 36.9578 36.829ZM10.9998 34C10.9998 32.698 11.8388 31.598 12.9998 31.184V36C12.9998 36.28 13.0228 36.554 13.0418 36.829C11.8588 36.427 10.9998 35.317 10.9998 34ZM12.9998 27V29.101C12.2568 29.253 11.5838 29.583 10.9998 30.025V25C10.9998 17.28 17.2798 11 24.9998 11C32.7198 11 38.9998 17.28 38.9998 25V30.026C38.4158 29.584 37.7428 29.253 36.9998 29.102V27H35.9998C34.3328 27 32.7648 26.351 31.5858 25.172L28.1078 21.694L26.1148 23.118C22.5598 25.657 18.3698 27 13.9998 27H12.9998ZM14.9998 36V28.979C19.4268 28.789 23.6528 27.334 27.2768 24.746L27.8918 24.307L30.1718 26.587C31.4898 27.905 33.1768 28.722 34.9998 28.941V36C34.9998 41.514 30.5138 46 24.9998 46C19.4858 46 14.9998 41.514 14.9998 36ZM5.36879 54.056C6.20879 51.537 8.45179 49.683 11.0848 49.331L17.7428 48.443L15.7728 52.186L17.8568 54.27L16.8248 57.364L20.3068 60H10.2198L10.9808 56.196L9.01979 55.804L8.17979 60H3.38679L5.36879 54.056ZM41.8198 60L40.9808 55.804L39.0198 56.197L39.7798 60H29.6928L33.1758 57.364L32.1438 54.27L34.2278 52.186L32.2578 48.443L38.9158 49.331C41.5478 49.683 43.7918 51.537 44.6318 54.056L46.6128 60H41.8198Z" fill="black"/>
<path d="M19 33C19.5523 33 20 32.5523 20 32C20 31.4477 19.5523 31 19 31C18.4477 31 18 31.4477 18 32C18 32.5523 18.4477 33 19 33Z" fill="black"/>
<path d="M31 33C31.5523 33 32 32.5523 32 32C32 31.4477 31.5523 31 31 31C30.4477 31 30 31.4477 30 32C30 32.5523 30.4477 33 31 33Z" fill="black"/>
<path d="M32 37H30C30 39.757 27.757 42 25 42C22.243 42 20 39.757 20 37H18C18 40.859 21.14 44 25 44C28.86 44 32 40.859 32 37Z" fill="black"/>
<path d="M59 10H57V12H59V10Z" fill="black"/>
<path d="M47 10H45V12H47V10Z" fill="black"/>
</svg>
