<svg width="60" height="59" viewBox="0 0 60 59" fill="none" xmlns="http://www.w3.org/2000/svg">
<path fill-rule="evenodd" clip-rule="evenodd" d="M43 13H3C1.895 13 1 12.105 1 11V3C1 1.895 1.895 1 3 1H43C44.105 1 45 1.895 45 3V11C45 12.105 44.105 13 43 13Z" stroke="black" stroke-width="2" stroke-linecap="round" stroke-linejoin="round"/>
<path fill-rule="evenodd" clip-rule="evenodd" d="M43 28H3C1.895 28 1 27.105 1 26V18C1 16.895 1.895 16 3 16H43C44.105 16 45 16.895 45 18V26C45 27.105 44.105 28 43 28Z" stroke="black" stroke-width="2" stroke-linecap="round" stroke-linejoin="round"/>
<path fill-rule="evenodd" clip-rule="evenodd" d="M57 43H17C15.895 43 15 42.105 15 41V33C15 31.895 15.895 31 17 31H57C58.105 31 59 31.895 59 33V41C59 42.105 58.105 43 57 43Z" stroke="black" stroke-width="2" stroke-linecap="round" stroke-linejoin="round"/>
<path fill-rule="evenodd" clip-rule="evenodd" d="M43 58H3C1.895 58 1 57.105 1 56V48C1 46.895 1.895 46 3 46H43C44.105 46 45 46.895 45 48V56C45 57.105 44.105 58 43 58Z" stroke="black" stroke-width="2" stroke-linecap="round" stroke-linejoin="round"/>
<path d="M8 37H23" stroke="black" stroke-width="2" stroke-linecap="round" stroke-linejoin="round"/>
<path d="M20 34L23 37" stroke="black" stroke-width="2" stroke-linecap="round" stroke-linejoin="round"/>
<path d="M20 40L23 37" stroke="black" stroke-width="2" stroke-linecap="round" stroke-linejoin="round"/>
<path d="M29 37H53" stroke="black" stroke-width="2" stroke-linecap="round" stroke-linejoin="round"/>
<path d="M15 22H39" stroke="black" stroke-width="2" stroke-linecap="round" stroke-linejoin="round"/>
<path fill-rule="evenodd" clip-rule="evenodd" d="M10 22C10 20.895 9.105 20 8 20C6.895 20 6 20.895 6 22C6 23.105 6.895 24 8 24C9.105 24 10 23.105 10 22Z" fill="black"/>
<path d="M15 7H39" stroke="black" stroke-width="2" stroke-linecap="round" stroke-linejoin="round"/>
<path fill-rule="evenodd" clip-rule="evenodd" d="M10 7C10 5.895 9.105 5 8 5C6.895 5 6 5.895 6 7C6 8.105 6.895 9 8 9C9.105 9 10 8.105 10 7Z" fill="black"/>
<path d="M15 52H39" stroke="black" stroke-width="2" stroke-linecap="round" stroke-linejoin="round"/>
<path fill-rule="evenodd" clip-rule="evenodd" d="M10 52C10 50.895 9.105 50 8 50C6.895 50 6 50.895 6 52C6 53.105 6.895 54 8 54C9.105 54 10 53.105 10 52Z" fill="black"/>
</svg>
