<svg width="480" height="480" viewBox="0 0 480 480" fill="none" xmlns="http://www.w3.org/2000/svg">
<path d="M13.657 242.343C12.5382 241.224 11.1127 240.462 9.5608 240.153C8.00892 239.845 6.40034 240.003 4.93849 240.609C3.47665 241.214 2.2272 242.239 1.34815 243.555C0.469103 244.871 -5.76515e-05 246.418 5.3136e-09 248V472C5.3136e-09 474.122 0.842854 476.156 2.34315 477.657C3.84344 479.157 5.87827 480 8 480H232C233.582 480 235.129 479.531 236.445 478.652C237.76 477.773 238.786 476.523 239.391 475.061C239.997 473.599 240.155 471.991 239.847 470.439C239.538 468.887 238.776 467.462 237.657 466.343L13.657 242.343ZM16 464V267.313L212.687 464H16Z" fill="black"/>
<path d="M56 432H120C121.582 432 123.129 431.531 124.445 430.652C125.76 429.773 126.786 428.523 127.391 427.061C127.997 425.599 128.155 423.991 127.847 422.439C127.538 420.887 126.776 419.462 125.657 418.343L61.657 354.343C60.5382 353.224 59.1127 352.462 57.5608 352.153C56.0089 351.845 54.4003 352.003 52.9385 352.609C51.4766 353.214 50.2272 354.239 49.3482 355.555C48.4691 356.871 47.9999 358.418 48 360V424C48 426.122 48.8429 428.156 50.3431 429.657C51.8434 431.157 53.8783 432 56 432ZM64 379.314L100.687 416H64V379.314Z" fill="black"/>
<path d="M104 32H88V48H104V32Z" fill="black"/>
<path d="M136 32H120V48H136V32Z" fill="black"/>
<path d="M168 32H152V48H168V32Z" fill="black"/>
<path d="M164.756 144.7C163.334 145.315 162.124 146.335 161.278 147.633C160.432 148.932 159.988 150.45 160 152V240C160 241.548 160.449 243.062 161.292 244.36C162.135 245.657 163.337 246.682 164.751 247.311L236.751 279.311C237.774 279.767 238.882 280.002 240.002 280.001C241.122 280 242.229 279.763 243.251 279.305V279.311L315.251 247.311C316.665 246.682 317.866 245.657 318.709 244.359C319.552 243.062 320.001 241.547 320 240V152C320.013 150.45 319.568 148.932 318.722 147.633C317.876 146.335 316.667 145.315 315.244 144.7V144.689L243.244 112.689C242.221 112.235 241.114 112 239.994 112C238.875 112 237.768 112.235 236.744 112.689L164.744 144.689L164.756 144.7ZM232 259.69L176 234.8V164.31L232 189.2V259.69ZM304 234.8L248 259.69V189.2L304 164.311V234.8ZM240 128.754L292.3 152L240 175.245L187.7 152L240 128.754Z" fill="black"/>
<path d="M248 304H232V344H248V304Z" fill="black"/>
<path d="M248 56H232V96H248V56Z" fill="black"/>
<path d="M107.449 120.782L100.553 135.22L134.053 151.22L140.949 136.782L107.449 120.782Z" fill="black"/>
<path d="M372.553 120.779L339.053 136.779L345.948 151.217L379.449 135.217L372.553 120.779Z" fill="black"/>
<path d="M134.052 248.779L100.553 264.781L107.449 279.219L140.948 263.217L134.052 248.779Z" fill="black"/>
<path d="M472 368H424V243.314L471.03 196.284C473.874 193.44 476.13 190.064 477.669 186.348C479.208 182.632 480 178.649 480 174.627C480 170.605 479.208 166.622 477.669 162.907C476.13 159.191 473.874 155.814 471.03 152.971C468.185 150.127 464.809 147.871 461.093 146.331C457.377 144.792 453.395 144 449.373 144C445.351 144 441.368 144.793 437.652 146.332C433.936 147.871 430.56 150.127 427.716 152.971L424 156.687V88C424 86.9494 423.793 85.9091 423.391 84.9385C422.989 83.9678 422.4 83.0859 421.657 82.343L341.657 2.343C340.914 1.60014 340.032 1.01088 339.062 0.608868C338.091 0.206855 337.051 -3.82755e-05 336 5.31126e-09H88C79.516 0.00952844 71.3822 3.38401 65.3831 9.38311C59.384 15.3822 56.0095 23.516 56 32V264H72V32C72.005 27.7581 73.6924 23.6913 76.6918 20.6918C79.6913 17.6924 83.7581 16.005 88 16H328V64C328.01 72.484 331.384 80.6178 337.383 86.6169C343.382 92.616 351.516 95.9905 360 96H408V172.686L282.343 298.343C281.226 299.46 280.465 300.882 280.155 302.431L272.155 342.431C271.897 343.723 271.961 345.058 272.343 346.318C272.724 347.579 273.411 348.726 274.343 349.657C275.274 350.589 276.421 351.276 277.682 351.657C278.942 352.039 280.277 352.103 281.569 351.845L321.569 343.845C323.118 343.535 324.54 342.774 325.657 341.657L408 259.314V368H248C245.878 368 243.843 368.843 242.343 370.343C240.843 371.843 240 373.878 240 376V400H200V416H240V440C240 442.122 240.843 444.157 242.343 445.657C243.843 447.157 245.878 448 248 448H472C474.122 448 476.157 447.157 477.657 445.657C479.157 444.157 480 442.122 480 440V376C480 373.878 479.157 371.843 477.657 370.343C476.157 368.843 474.122 368 472 368ZM344 64V27.314L396.686 80H360C355.758 79.995 351.691 78.3076 348.692 75.3082C345.692 72.3087 344.005 68.2419 344 64ZM299.314 304L424 179.314L444.686 200L320 324.686L299.314 304ZM449.373 160C452.266 160 455.094 160.858 457.499 162.466C459.905 164.073 461.779 166.357 462.886 169.03C463.994 171.703 464.283 174.644 463.719 177.481C463.155 180.319 461.762 182.925 459.716 184.971L456 188.686L435.314 168L439.03 164.284C440.385 162.921 441.997 161.841 443.772 161.106C445.548 160.37 447.451 159.995 449.373 160V160ZM292.913 320.227L303.773 331.087L290.2 333.8L292.913 320.227ZM464 432H256V384H272V400H288V384H304V400H320V384H336V400H352V384H368V400H384V384H400V400H416V384H432V400H448V384H464V432Z" fill="black"/>
</svg>
