<svg width="934" height="934" viewBox="0 0 934 934" fill="none" xmlns="http://www.w3.org/2000/svg">
<path fill-rule="evenodd" clip-rule="evenodd" d="M655.76 539.506C655.76 643.528 571.129 728.16 466.227 728.16C362.205 728.16 277.573 643.529 277.573 539.506C277.573 346.453 441.547 339.4 466.227 17.6265C494.435 235.36 651.347 344.68 655.76 539.506V539.506ZM526.172 597.689C409.808 579.178 572.011 413.449 481.213 155.156C508.541 221.27 735.973 623.249 526.172 597.689Z" fill="black"/>
<path d="M103.057 762.276C103.151 762.14 103.271 762.026 103.411 761.942C103.547 761.859 103.693 761.817 103.849 761.817C104.125 761.817 104.333 761.911 104.474 762.088C104.625 762.255 104.703 762.5 104.703 762.817V764.297H103.932V763.047V762.984V762.901C103.932 762.724 103.901 762.599 103.849 762.526C103.807 762.442 103.729 762.401 103.62 762.401C103.463 762.401 103.349 762.463 103.266 762.588C103.193 762.713 103.151 762.89 103.141 763.109V764.297H102.37V763.047C102.37 762.771 102.349 762.599 102.307 762.526C102.266 762.442 102.182 762.401 102.057 762.401C101.901 762.401 101.786 762.463 101.703 762.588C101.63 762.713 101.599 762.89 101.599 763.109V764.297H100.828V761.88H101.599V762.234C101.693 762.099 101.797 761.994 101.911 761.922C102.036 761.854 102.172 761.817 102.328 761.817C102.495 761.817 102.641 761.859 102.766 761.942C102.891 762.026 102.984 762.14 103.057 762.276L103.057 762.276Z" fill="black"/>
</svg>
