<svg width="62" height="62" viewBox="0 0 62 62" fill="none" xmlns="http://www.w3.org/2000/svg">
<path d="M38.5 21C38.5 18.5186 36.4814 16.5 34 16.5H33.3381L31.4639 21.1855C31.3887 21.3755 31.2041 21.5 31 21.5C30.7959 21.5 30.6113 21.3755 30.5361 21.1855L28.6619 16.5H28C25.5186 16.5 23.5 18.5186 23.5 21V24.8765L28.7129 22.6426C29.5684 22.2729 30.5615 22.6406 30.9775 23.4722C31.3584 24.2319 31.1406 25.1543 30.46 25.6646L23.5 30.8845V31.5H38.5V21Z" fill="#B7791F"/>
<path d="M52.0001 19.6538L53.262 16.5H50.7383L52.0001 19.6538Z" fill="#B7791F"/>
<path d="M30.083 23.9198C29.9033 23.5604 29.4736 23.4022 29.1074 23.5614L23.5 25.9643V29.6348L29.8604 24.8646C30.1533 24.6444 30.2471 24.2469 30.083 23.9198Z" fill="#B7791F"/>
<path d="M31 10.5C33.4932 10.5 35.5 7.49121 35.5 5C35.5 2.51855 33.4814 0.5 31 0.5C28.5186 0.5 26.5 2.51855 26.5 5C26.5 7.49121 28.5068 10.5 31 10.5Z" fill="#B7791F"/>
<path d="M10 10.5C12.4932 10.5 14.5 7.49121 14.5 5C14.5 2.51855 12.4814 0.5 10 0.5C7.51855 0.5 5.5 2.51855 5.5 5C5.5 7.49121 7.50684 10.5 10 10.5Z" fill="#B7791F"/>
<path d="M52 10.5C54.4932 10.5 56.5 7.49121 56.5 5C56.5 2.51855 54.4814 0.5 52 0.5C49.5186 0.5 47.5 2.51855 47.5 5C47.5 7.49121 49.5068 10.5 52 10.5Z" fill="#B7791F"/>
<path d="M31.0001 19.6538L32.262 16.5H29.7383L31.0001 19.6538Z" fill="#B7791F"/>
<path d="M60 32.5H44H39H23H18H2C1.17285 32.5 0.5 33.1729 0.5 34V42C0.5 42.8271 1.17285 43.5 2 43.5H5H57H60C60.8271 43.5 61.5 42.8271 61.5 42V34C61.5 33.1729 60.8271 32.5 60 32.5Z" fill="#B7791F"/>
<path d="M17.5 21C17.5 18.5186 15.4814 16.5 13 16.5H12.3381L10.4639 21.1855C10.3887 21.3755 10.2041 21.5 10 21.5C9.7959 21.5 9.61133 21.3755 9.53613 21.1855L7.66193 16.5H7C4.51855 16.5 2.5 18.5186 2.5 21V24.8765L7.71289 22.6426C8.56641 22.2729 9.56152 22.6406 9.97754 23.4722C10.3584 24.2319 10.1406 25.1543 9.45996 25.6646L2.5 30.8845V31.5H17.5V21Z" fill="#B7791F"/>
<path d="M10.0001 19.6538L11.262 16.5H8.73828L10.0001 19.6538Z" fill="#B7791F"/>
<path d="M9.08301 23.9198C8.90332 23.5604 8.47461 23.4022 8.10742 23.5614L2.5 25.9643V29.6348L8.86035 24.8646C9.15332 24.6444 9.24707 24.2469 9.08301 23.9198Z" fill="#B7791F"/>
<path d="M5.5 61.5H56.5V44.5H5.5V61.5ZM37.5 50C37.5 49.7236 37.7236 49.5 38 49.5H49C49.2764 49.5 49.5 49.7236 49.5 50V55C49.5 55.2764 49.2764 55.5 49 55.5H38C37.7236 55.5 37.5 55.2764 37.5 55V50ZM12.5 50C12.5 49.7236 12.7236 49.5 13 49.5H24C24.2764 49.5 24.5 49.7236 24.5 50V55C24.5 55.2764 24.2764 55.5 24 55.5H13C12.7236 55.5 12.5 55.2764 12.5 55V50Z" fill="#B7791F"/>
<path d="M59.5 30.8845L52.54 25.6646C51.8594 25.1543 51.6416 24.2319 52.0225 23.4717C52.4385 22.6406 53.4326 22.2749 54.2871 22.6426L59.5 24.8765V21C59.5 18.5186 57.4814 16.5 55 16.5H54.3381L52.4639 21.1855C52.3887 21.3755 52.2041 21.5 52 21.5C51.7959 21.5 51.6113 21.3755 51.5361 21.1855L49.6619 16.5H49C46.5186 16.5 44.5 18.5186 44.5 21V31.5H59.5V30.8845Z" fill="#B7791F"/>
<path d="M52.9172 23.9192C52.7532 24.2468 52.8469 24.6443 53.1399 24.8645L59.5002 29.6348V25.9642L53.8928 23.5613C53.5237 23.4021 53.0959 23.5608 52.9172 23.9192Z" fill="#B7791F"/>
</svg>
