<svg width="128" height="128" viewBox="0 0 128 128" fill="none" xmlns="http://www.w3.org/2000/svg">
<path d="M120 70.0001H111V57.0675C111 56.7166 110.907 56.372 110.732 56.068L101.614 40.2623C102.388 39.44 102.867 38.3849 102.979 37.2615C103.09 36.1381 102.827 35.0094 102.229 34.0514L98.8242 28.5162C98.085 27.3351 96.9141 26.489 95.5607 26.1579C94.2073 25.8268 92.778 26.0368 91.5771 26.7433C90.9759 27.0945 90.4513 27.563 90.0346 28.1208C89.618 28.6787 89.3176 29.3146 89.1514 29.9908C88.9845 30.6585 88.9533 31.3529 89.0598 32.0329C89.1664 32.7129 89.4084 33.3646 89.7715 33.9493L93.1758 39.4845C93.6552 40.2559 94.3241 40.8917 95.1188 41.3313C95.9135 41.771 96.8076 41.9999 97.7158 41.9962C97.8057 41.9962 97.8965 41.983 97.9863 41.9786L107 57.6031V70.0001H99V61.1476C99 49.7003 89.3174 39.8561 77.3662 35.4576C73.533 38.4032 68.8342 40.0001 64 40.0001C59.1658 40.0001 54.4669 38.4032 50.6338 35.4576C38.6826 39.8561 29 49.7003 29 61.1476V70.0001H21V57.6031L30.0137 41.9786C30.1035 41.983 30.1943 41.9962 30.2842 41.9962C31.1924 41.9999 32.0864 41.771 32.8812 41.3313C33.6759 40.8917 34.3448 40.2559 34.8242 39.4845L38.2285 33.9503C38.5916 33.3654 38.8335 32.7135 38.9401 32.0334C39.0466 31.3533 39.0155 30.6587 38.8486 29.9908C38.6824 29.3146 38.382 28.6787 37.9653 28.1208C37.5486 27.563 37.0241 27.0945 36.4229 26.7433C35.222 26.0365 33.7927 25.8262 32.4391 26.1574C31.0856 26.4885 29.9147 27.3348 29.1758 28.5162L25.7705 34.0514C25.1734 35.0094 24.91 36.1381 25.0212 37.2615C25.1325 38.3849 25.6122 39.44 26.3857 40.2623L17.2676 56.068C17.0925 56.372 17.0002 56.7166 17 57.0675V70.0001H8C3.59958 70.0001 0 73.1505 0 77.0001C0 80.8497 3.59958 84.0001 8 84.0001H17V120C17.0001 122.122 17.843 124.157 19.3433 125.657C20.8435 127.157 22.8783 128 25 128H103C105.122 128 107.156 127.157 108.657 125.657C110.157 124.157 111 122.122 111 120V84.0001H120C124.4 84.0001 128 80.8497 128 77.0001C128 73.1505 124.4 70.0001 120 70.0001ZM120 80.0001H8C5.86908 80.0001 4 78.5978 4 77.0001C4 75.4024 5.86908 74.0001 8 74.0001H120C122.131 74.0001 124 75.4024 124 77.0001C124 78.5978 122.131 80.0001 120 80.0001Z" fill="#6B46C1"/>
<path d="M64.0005 36.0005C73.9416 36.0005 82.0005 27.9416 82.0005 18.0005C82.0005 8.05936 73.9416 0.000488281 64.0005 0.000488281C54.0594 0.000488281 46.0005 8.05936 46.0005 18.0005C46.0005 27.9416 54.0594 36.0005 64.0005 36.0005Z" fill="#6B46C1"/>
</svg>
