<svg width="38" height="50" viewBox="0 0 38 96" fill="none" xmlns="http://www.w3.org/2000/svg">
<path d="M19.0002 17.3C23.6002 17.3 27.3002 13.5 27.3002 8.9C27.3002 4.3 23.6002 0.5 19.0002 0.5C14.4002 0.5 10.7002 4.3 10.7002 8.9C10.7002 13.5 14.4002 17.3 19.0002 17.3Z" fill="#2F855A"/>
<path d="M22.6998 21.3999H15.2998L18.9998 36.9999L22.6998 21.3999Z" fill="#2F855A"/>
<path d="M27.6 21.3998H23.8L19.8 38.0998H22.9C23.4 38.0998 23.9 38.4998 23.9 39.0998V44.6998C23.9 45.1998 23.5 45.6998 22.9 45.6998H15.2C14.7 45.6998 14.2 45.2998 14.2 44.6998V38.9998C14.2 38.4998 14.6 37.9998 15.2 37.9998H18.3L14.3 21.2998H10.5C5 21.2998 0.5 24.7998 0.5 30.3998V53.6998C0.5 55.5998 2 57.0998 3.9 57.0998C5.8 57.0998 7.3 55.5998 7.3 53.6998V33.6998H9C9 33.6998 9 87.0998 9 90.7998C9 93.2998 11 95.3998 13.6 95.3998C16.1 95.3998 18.2 93.2998 18.2 90.7998V60.2998H20.1V90.8998C20.1 93.3998 22.2 95.4998 24.7 95.4998C27.2 95.4998 29.3 93.3998 29.3 90.8998V33.7998H31.1V53.7998C31.1 55.6998 32.6 57.1998 34.5 57.1998C36.4 57.1998 37.9 55.6998 37.9 53.7998V30.3998C37.6 24.8998 33.1 21.3998 27.6 21.3998Z" fill="#2F855A"/>
</svg>
