<svg width="90" height="96" viewBox="0 0 90 96" fill="none" xmlns="http://www.w3.org/2000/svg">
<path d="M45.0002 13.1C48.4796 13.1 51.3002 10.2794 51.3002 6.8C51.3002 3.32061 48.4796 0.5 45.0002 0.5C41.5208 0.5 38.7002 3.32061 38.7002 6.8C38.7002 10.2794 41.5208 13.1 45.0002 13.1Z" fill="#B83280"/>
<path d="M45.0004 20.7999L47.6004 15.2H42.4004L45.0004 20.7999Z" fill="#B83280"/>
<path d="M38 19.1V57H43.7V38.1H46.3V57H52V19.1L62.8 8.20005C63.7 7.20005 63.7 5.70005 62.8 4.80005C61.8 3.90005 60.3 3.90005 59.4 4.80005L49.6 14.8L46.4 21.5C47.1 21.9 47.6 22.7 47.6 23.6C47.6 25 46.5 26.1 45.1 26.1C43.7 26.1 42.6 25 42.6 23.6C42.6 22.7 43.1 21.9 43.8 21.5L40.6 14.8L30.8 4.80005C29.9 3.80005 28.3 3.80005 27.4 4.80005C26.5 5.70005 26.4 7.30005 27.4 8.20005L38 19.1Z" fill="#B83280"/>
<path d="M16.3 24.9999C19.7794 24.9999 22.6 22.1793 22.6 18.6999C22.6 15.2205 19.7794 12.3999 16.3 12.3999C12.8206 12.3999 10 15.2205 10 18.6999C10 22.1793 12.8206 24.9999 16.3 24.9999Z" fill="#B83280"/>
<path d="M24.2002 28.3001C23.8002 27.6001 23.0002 27.1001 22.1002 27.1001H10.6002C9.8002 27.1001 9.0002 27.6001 8.5002 28.3001L0.600197 41.3001C-0.0998029 42.5001 0.300197 43.9001 1.4002 44.6001C1.8002 44.8001 2.2002 45.0001 2.7002 45.0001C3.5002 45.0001 4.3002 44.6001 4.8002 43.8001L9.4002 36.2001V68.8001H15.0002V50.0001H17.6002V68.8001H23.3002V36.2001L27.9002 43.8001C28.6002 44.9001 30.1002 45.3001 31.2002 44.6001C32.3002 43.9001 32.7002 42.4001 32.0002 41.3001L24.2002 28.3001Z" fill="#B83280"/>
<path d="M27.0002 72.1001H5.7002V95.5001H27.0002V72.1001Z" fill="#B83280"/>
<path d="M73.7004 33.1C77.1798 33.1 80.0004 30.2794 80.0004 26.8C80.0004 23.3206 77.1798 20.5 73.7004 20.5C70.221 20.5 67.4004 23.3206 67.4004 26.8C67.4004 30.2794 70.221 33.1 73.7004 33.1Z" fill="#B83280"/>
<path d="M89.3 49.4L81.4 36.4C81 35.7 80.2 35.2 79.3 35.2H67.9C67.1 35.2 66.3 35.7 65.8 36.4L57.9 49.4C57.2 50.6 57.6 52 58.7 52.7C59.1 52.9 59.5 53.0999 60 53.0999C60.8 53.0999 61.6 52.7 62.1 51.9L66.7 44.2999V76.9H72.4V58.0999H75V76.9H80.7V44.2999L85.3 51.9C86 53 87.5 53.4 88.6 52.7C89.7 52 90 50.5 89.3 49.4Z" fill="#B83280"/>
<path d="M84.3 80.2H63V95.5H84.3V80.2Z" fill="#B83280"/>
<path d="M55.7004 60.2H34.4004V95.5H55.7004V60.2Z" fill="#B83280"/>
</svg>
