<svg width="80" height="74" viewBox="0 0 80 74" fill="none" xmlns="http://www.w3.org/2000/svg">
<path d="M73.338 36.999C70.874 36.999 68.747 38.35 67.593 40.332H40V47.002H67.593C68.747 48.984 70.874 50.332 73.338 50.332C77.015 50.332 80 47.353 80 43.666C80 39.986 77.015 36.999 73.338 36.999Z" fill="black"/>
<path d="M73.338 10.332C70.874 10.332 68.747 11.683 67.593 13.666H40V20.331H67.593C68.747 22.317 70.874 23.665 73.338 23.665C77.015 23.665 80 20.683 80 17C80 13.32 77.015 10.332 73.338 10.332Z" fill="black"/>
<path d="M33.332 40.332H13.333V47.002H33.332V40.332Z" fill="black"/>
<path d="M33.332 53.666H13.333V60.334H33.332V53.666Z" fill="black"/>
<path d="M33.332 27H13.333V33.668H33.332V27Z" fill="black"/>
<path d="M33.332 13.666H13.333V20.331H33.332V13.666Z" fill="black"/>
<path d="M53.336 50.332C50.872 50.332 48.748 51.686 47.591 53.666H40V60.334H47.591C48.748 62.32 50.872 63.668 53.336 63.668C57.016 63.668 60.002 60.686 60.002 57C60.002 53.32 57.016 50.332 53.336 50.332Z" fill="black"/>
<path d="M60.004 23.665C57.54 23.665 55.413 25.016 54.259 26.999H40V33.667H54.259C55.413 35.65 57.54 36.998 60.004 36.998C63.682 36.998 66.667 34.019 66.667 30.333C66.667 26.654 63.682 23.665 60.004 23.665Z" fill="black"/>
<path d="M46.668 6.99803C46.668 3.31503 43.683 0.332031 40 0.332031H6.665C2.985 0.332031 0 3.31703 0 6.99803V67C0 70.686 2.985 73.668 6.665 73.668H40C43.683 73.668 46.668 70.686 46.668 67H6.665V6.99803H46.668Z" fill="black"/>
</svg>
