<svg xmlns="http://www.w3.org/2000/svg" xmlns:xlink="http://www.w3.org/1999/xlink" version="1.1" x="0px" y="0px" viewBox="0 0 128 160" enable-background="new 0 0 128 128" xml:space="preserve"><title>miscellaneous 59 solid</title><path d="M28,34h26c1.1,0,2-0.9,2-2c0-1.1-0.9-2-2-2H28c-1.1,0-2,0.9-2,2C26,33.1,26.9,34,28,34z"/><path d="M28,42h33c1.1,0,2-0.9,2-2s-0.9-2-2-2H28c-1.1,0-2,0.9-2,2S26.9,42,28,42z"/><path d="M28,50h42c1.1,0,2-0.9,2-2s-0.9-2-2-2H28c-1.1,0-2,0.9-2,2S26.9,50,28,50z"/><path d="M28,58h52c1.1,0,2-0.9,2-2s-0.9-2-2-2H28c-1.1,0-2,0.9-2,2S26.9,58,28,58z"/><path d="M85.7,52.5c0.9,0.7,2.1,0.6,2.8-0.3c0.7-0.8,0.6-2.1-0.3-2.8L78.1,41l10.2-8.5c0.8-0.7,1-2,0.3-2.8c-0.7-0.8-2-1-2.8-0.3  l-12,10c-0.8,0.7-1,2-0.3,2.8c0.1,0.1,0.2,0.2,0.3,0.3L85.7,52.5z"/><path d="M95.5,52.3c0.7,0.8,2,1,2.8,0.3c0,0,0,0,0,0l12-10c0.8-0.7,1-2,0.3-2.8c-0.1-0.1-0.2-0.2-0.3-0.3l-12-10  c-0.9-0.7-2.1-0.6-2.8,0.3c-0.7,0.8-0.6,2.1,0.3,2.8l10.2,8.5l-10.2,8.5C94.9,50.2,94.8,51.4,95.5,52.3z"/><path d="M14,11c0-4,1.6-7.9,4.5-10.7C13.5,1.5,10,5.9,10,11v106c0,5.1,3.5,9.5,8.5,10.7C15.6,124.9,14,121,14,117V11z"/><path d="M107,0H29c-6.1,0-11,4.9-11,11v106c0,6.1,4.9,11,11,11h78c6.1,0,11-4.9,11-11V11C118,4.9,113.1,0,107,0z M102,8h6  c1.1,0,2,0.9,2,2s-0.9,2-2,2h-6c-1.1,0-2-0.9-2-2S100.9,8,102,8z M88,8h6c1.1,0,2,0.9,2,2s-0.9,2-2,2h-6c-1.1,0-2-0.9-2-2  S86.9,8,88,8z M114,67H62c-3.3,0-6,2.7-6,6v32c0,3.3,2.7,6,6,6h52v6c0,3.9-3.1,7-7,7H29c-3.9,0-7-3.1-7-7V20h92V67z"/><text x="0" y="143" fill="#000000" font-size="5px" font-weight="bold" font-family="'Helvetica Neue', Helvetica, Arial-Unicode, Arial, Sans-serif">Created by priyanka</text><text x="0" y="148" fill="#000000" font-size="5px" font-weight="bold" font-family="'Helvetica Neue', Helvetica, Arial-Unicode, Arial, Sans-serif">from the Noun Project</text></svg>