<svg width="100" height="100" viewBox="0 0 100 100" fill="none" xmlns="http://www.w3.org/2000/svg">
<path d="M44.9198 41.8401L47.0698 44.0001C47.4552 44.3856 47.9127 44.6914 48.4163 44.9C48.9199 45.1087 49.4597 45.2161 50.0048 45.2161C50.5499 45.2161 51.0897 45.1087 51.5933 44.9C52.0969 44.6914 52.5544 44.3856 52.9398 44.0001L59.2998 37.6401C59.4001 37.5394 59.5194 37.4595 59.6506 37.405C59.7819 37.3505 59.9227 37.3224 60.0648 37.3224C60.2069 37.3224 60.3477 37.3505 60.479 37.405C60.6102 37.4595 60.7295 37.5394 60.8298 37.6401C60.9593 37.7683 61.0539 37.9274 61.1046 38.1024C61.1554 38.2774 61.1606 38.4625 61.1198 38.6401C60.8665 39.8507 61.011 41.1108 61.5318 42.2327C62.0526 43.3545 62.9218 44.2781 64.0101 44.866C65.0983 45.4538 66.3473 45.6744 67.5711 45.495C68.7948 45.3155 69.9279 44.7455 70.8015 43.8699C71.6751 42.9944 72.2425 41.86 72.4192 40.6359C72.5959 39.4117 72.3725 38.1632 71.7822 37.0763C71.1919 35.9894 70.2663 35.1222 69.1433 34.6039C68.0203 34.0857 66.7599 33.944 65.5498 34.2001C65.3723 34.2419 65.1869 34.2371 65.0117 34.1863C64.8366 34.1355 64.6775 34.0404 64.5498 33.9101C64.4491 33.8097 64.3692 33.6905 64.3147 33.5592C64.2602 33.428 64.2322 33.2872 64.2322 33.1451C64.2322 33.0029 64.2602 32.8622 64.3147 32.7309C64.3692 32.5996 64.4491 32.4804 64.5498 32.3801L70.9998 26.0001C71.3853 25.6147 71.6911 25.1571 71.8998 24.6535C72.1084 24.1499 72.2158 23.6102 72.2158 23.0651C72.2158 22.52 72.1084 21.9802 71.8998 21.4766C71.6911 20.973 71.3853 20.5155 70.9998 20.1301L64.6398 13.7701C64.5391 13.6697 64.4592 13.5505 64.4047 13.4192C64.3502 13.288 64.3222 13.1472 64.3222 13.0051C64.3222 12.8629 64.3502 12.7222 64.4047 12.5909C64.4592 12.4596 64.5391 12.3404 64.6398 12.2401C64.7675 12.1098 64.9266 12.0146 65.1017 11.9638C65.2769 11.913 65.4623 11.9083 65.6398 11.9501C66.8499 12.2061 68.1103 12.0645 69.2333 11.5462C70.3563 11.0279 71.2819 10.1608 71.8722 9.07386C72.4625 7.98696 72.686 6.73845 72.5092 5.51429C72.3325 4.29012 71.7651 3.15578 70.8915 2.28021C70.0179 1.40463 68.8848 0.83466 67.6611 0.655178C66.4373 0.475695 65.1883 0.696303 64.1001 1.28415C63.0118 1.87199 62.1426 2.79562 61.6218 3.91749C61.101 5.03935 60.9565 6.29943 61.2098 7.51007C61.2506 7.68766 61.2454 7.87272 61.1946 8.04772C61.1439 8.22273 61.0493 8.38187 60.9198 8.51007V8.51007C60.8195 8.61076 60.7002 8.69064 60.569 8.74515C60.4377 8.79966 60.2969 8.82772 60.1548 8.82772C60.0127 8.82772 59.8719 8.79966 59.7406 8.74515C59.6094 8.69064 59.4901 8.61076 59.3898 8.51007L52.9398 2.07007C52.5544 1.68455 52.0969 1.37874 51.5933 1.17009C51.0897 0.961446 50.5499 0.854056 50.0048 0.854056C49.4597 0.854056 48.9199 0.961446 48.4163 1.17009C47.9127 1.37874 47.4552 1.68455 47.0698 2.07007L40.6998 8.44007C40.5995 8.54075 40.4802 8.62064 40.349 8.67515C40.2177 8.72966 40.0769 8.75772 39.9348 8.75772C39.7927 8.75772 39.6519 8.72966 39.5206 8.67515C39.3894 8.62064 39.2701 8.54075 39.1698 8.44007C39.0403 8.31187 38.9457 8.15273 38.895 7.97772C38.8442 7.80272 38.839 7.61766 38.8798 7.44007C39.1331 6.22943 38.9886 4.96935 38.4678 3.84749C37.947 2.72562 37.0778 1.80199 35.9896 1.21415C34.9013 0.626303 33.6523 0.405695 32.4285 0.585178C31.2048 0.76466 30.0717 1.33463 29.1981 2.21021C28.3245 3.08578 27.7571 4.22012 27.5804 5.44429C27.4037 6.66845 27.6271 7.91696 28.2174 9.00387C28.8077 10.0908 29.7333 10.9579 30.8563 11.4762C31.9793 11.9945 33.2397 12.1361 34.4498 11.8801C34.6274 11.8383 34.8127 11.843 34.9879 11.8938C35.163 11.9446 35.3222 12.0398 35.4498 12.1701C35.5505 12.2704 35.6304 12.3896 35.6849 12.5209C35.7394 12.6522 35.7675 12.7929 35.7675 12.9351C35.7675 13.0772 35.7394 13.218 35.6849 13.3492C35.6304 13.4805 35.5505 13.5997 35.4498 13.7001L28.9998 20.0901C28.6083 20.4762 28.2974 20.9362 28.0851 21.4435C27.8729 21.9508 27.7636 22.4952 27.7636 23.0451C27.7636 23.595 27.8729 24.1394 28.0851 24.6466C28.2974 25.1539 28.6083 25.614 28.9998 26.0001L31.1398 28.1401C31.9366 26.8279 33.0204 25.7133 34.3098 24.8801C35.9197 23.8326 37.7991 23.275 39.7198 23.275C41.6405 23.275 43.5199 23.8326 45.1298 24.8801C46.5635 25.7988 47.7388 27.0685 48.5443 28.5686C49.3499 30.0688 49.7591 31.7499 49.733 33.4525C49.707 35.155 49.2466 36.8228 48.3955 38.2976C47.5445 39.7725 46.3309 41.0056 44.8698 41.8801L44.9198 41.8401Z" fill="black"/>
<path d="M7.46009 61.12C6.24945 60.8666 4.98937 61.0111 3.86751 61.5319C2.74564 62.0527 1.82201 62.922 1.23417 64.0102C0.646323 65.0984 0.425715 66.3475 0.605197 67.5712C0.78468 68.795 1.35465 69.928 2.23023 70.8016C3.1058 71.6752 4.24014 72.2427 5.46431 72.4194C6.68847 72.5961 7.93698 72.3727 9.02388 71.7824C10.1108 71.1921 10.978 70.2665 11.4962 69.1435C12.0145 68.0204 12.1561 66.76 11.9001 65.55C11.8583 65.3724 11.863 65.1871 11.9138 65.0119C11.9646 64.8367 12.0598 64.6776 12.1901 64.55C12.2904 64.4493 12.4097 64.3694 12.5409 64.3149C12.6722 64.2604 12.8129 64.2323 12.9551 64.2323C13.0972 64.2323 13.238 64.2604 13.3693 64.3149C13.5005 64.3694 13.6198 64.4493 13.7201 64.55L20.0901 71C20.4762 71.3915 20.9362 71.7024 21.4435 71.9146C21.9508 72.1268 22.4952 72.2361 23.0451 72.2361C23.595 72.2361 24.1394 72.1268 24.6467 71.9146C25.1539 71.7024 25.614 71.3915 26.0001 71L28.1401 68.86C26.8281 68.0629 25.7136 66.9791 24.8801 65.69C23.8326 64.08 23.275 62.2007 23.275 60.28C23.275 58.3593 23.8326 56.4799 24.8801 54.87C25.7988 53.4363 27.0685 52.261 28.5687 51.4554C30.0688 50.6499 31.7499 50.2407 33.4525 50.2667C35.1551 50.2928 36.8228 50.7531 38.2977 51.6042C39.7725 52.4553 41.0056 53.6689 41.8801 55.13L44.0001 52.93C44.3856 52.5446 44.6914 52.087 44.9001 51.5834C45.1087 51.0798 45.2161 50.5401 45.2161 49.995C45.2161 49.4499 45.1087 48.9101 44.9001 48.4065C44.6914 47.9029 44.3856 47.4453 44.0001 47.06L37.6101 40.7C37.5094 40.5996 37.4295 40.4804 37.375 40.3491C37.3205 40.2178 37.2924 40.0771 37.2924 39.935C37.2924 39.7928 37.3205 39.6521 37.375 39.5208C37.4295 39.3895 37.5094 39.2703 37.6101 39.17C37.7383 39.0405 37.8974 38.9459 38.0724 38.8951C38.2474 38.8444 38.4325 38.8392 38.6101 38.88C39.8207 39.1333 41.0808 38.9888 42.2027 38.468C43.3245 37.9472 44.2482 37.0779 44.836 35.9897C45.4239 34.9015 45.6445 33.6525 45.465 32.4287C45.2855 31.2049 44.7155 30.0719 43.84 29.1983C42.9644 28.3247 41.83 27.7573 40.6059 27.5805C39.3817 27.4038 38.1332 27.6272 37.0463 28.2175C35.9594 28.8078 35.0922 29.7334 34.574 30.8565C34.0557 31.9795 33.914 33.2399 34.1701 34.45C34.2119 34.6275 34.2071 34.8128 34.1563 34.988C34.1055 35.1632 34.0104 35.3223 33.8801 35.45C33.7798 35.5506 33.6605 35.6305 33.5293 35.685C33.398 35.7396 33.2572 35.7676 33.1151 35.7676C32.9729 35.7676 32.8322 35.7396 32.7009 35.685C32.5696 35.6305 32.4504 35.5506 32.3501 35.45L26.0001 29C25.6147 28.6144 25.1572 28.3086 24.6536 28.1C24.15 27.8913 23.6102 27.7839 23.0651 27.7839C22.52 27.7839 21.9802 27.8913 21.4766 28.1C20.973 28.3086 20.5155 28.6144 20.1301 29L13.7701 35.36C13.6698 35.4606 13.5505 35.5405 13.4193 35.595C13.288 35.6496 13.1472 35.6776 13.0051 35.6776C12.8629 35.6776 12.7222 35.6496 12.5909 35.595C12.4596 35.5405 12.3404 35.4606 12.2401 35.36C12.1098 35.2323 12.0147 35.0732 11.9638 34.898C11.913 34.7228 11.9083 34.5375 11.9501 34.36C12.2061 33.1499 12.0645 31.8895 11.5462 30.7665C11.028 29.6434 10.1608 28.7178 9.07388 28.1275C7.98698 27.5372 6.73847 27.3138 5.51431 27.4905C4.29014 27.6673 3.1558 28.2347 2.28023 29.1083C1.40465 29.9819 0.83468 31.1149 0.655197 32.3387C0.475715 33.5625 0.696323 34.8115 1.28417 35.8997C1.87201 36.9879 2.79564 37.8572 3.91751 38.378C5.03937 38.8988 6.29945 39.0433 7.51009 38.79C7.68768 38.7492 7.87274 38.7544 8.04774 38.8051C8.22275 38.8559 8.38189 38.9505 8.51009 39.08V39.08C8.61077 39.1803 8.69066 39.2995 8.74517 39.4308C8.79968 39.5621 8.82774 39.7028 8.82774 39.845C8.82774 39.9871 8.79968 40.1278 8.74517 40.2591C8.69066 40.3904 8.61077 40.5096 8.51009 40.61L2.07009 47.06C1.68457 47.4453 1.37876 47.9029 1.17011 48.4065C0.961466 48.9101 0.854076 49.4499 0.854076 49.995C0.854076 50.5401 0.961466 51.0798 1.17011 51.5834C1.37876 52.087 1.68457 52.5446 2.07009 52.93L8.44009 59.3C8.54077 59.4003 8.62066 59.5195 8.67517 59.6508C8.72968 59.7821 8.75774 59.9228 8.75774 60.065C8.75774 60.2071 8.72968 60.3479 8.67517 60.4791C8.62066 60.6104 8.54077 60.7296 8.44009 60.83C8.31389 60.9562 8.15812 61.0489 7.98695 61.0995C7.81578 61.1502 7.63467 61.1572 7.46009 61.12V61.12Z" fill="black"/>
<path d="M75.17 34.3598C76.2175 35.9697 76.775 37.8491 76.775 39.7698C76.775 41.6905 76.2175 43.5699 75.17 45.1798C74.2512 46.6135 72.9816 47.7888 71.4814 48.5943C69.9812 49.3999 68.3002 49.8091 66.5976 49.783C64.895 49.757 63.2273 49.2966 61.7524 48.4455C60.2776 47.5945 59.0445 46.3809 58.17 44.9198L56 47.0698C55.6145 47.4552 55.3087 47.9127 55.1 48.4163C54.8914 48.9199 54.784 49.4597 54.784 50.0048C54.784 50.5499 54.8914 51.0897 55.1 51.5933C55.3087 52.0969 55.6145 52.5544 56 52.9398L62.36 59.2998C62.4607 59.4001 62.5406 59.5194 62.5951 59.6506C62.6496 59.7819 62.6776 59.9227 62.6776 60.0648C62.6776 60.2069 62.6496 60.3477 62.5951 60.479C62.5406 60.6102 62.4607 60.7295 62.36 60.8298C62.2318 60.9593 62.0726 61.0539 61.8976 61.1046C61.7226 61.1554 61.5376 61.1606 61.36 61.1198C60.1494 60.8665 58.8893 61.011 57.7674 61.5318C56.6455 62.0526 55.7219 62.9218 55.1341 64.0101C54.5462 65.0983 54.3256 66.3473 54.5051 67.5711C54.6846 68.7948 55.2546 69.9279 56.1301 70.8015C57.0057 71.6751 58.14 72.2425 59.3642 72.4192C60.5884 72.5959 61.8369 72.3725 62.9238 71.7822C64.0107 71.1919 64.8779 70.2663 65.3961 69.1433C65.9144 68.0203 66.0561 66.7599 65.8 65.5498C65.7582 65.3723 65.7629 65.1869 65.8138 65.0117C65.8646 64.8366 65.9597 64.6775 66.09 64.5498C66.1903 64.4491 66.3095 64.3692 66.4408 64.3147C66.5721 64.2602 66.7129 64.2322 66.855 64.2322C66.9971 64.2322 67.1379 64.2602 67.2692 64.3147C67.4004 64.3692 67.5197 64.4491 67.62 64.5498L74 70.9998C74.3854 71.3853 74.8429 71.6911 75.3465 71.8998C75.8501 72.1084 76.3899 72.2158 76.935 72.2158C77.4801 72.2158 78.0199 72.1084 78.5235 71.8998C79.0271 71.6911 79.4846 71.3853 79.87 70.9998L86.23 64.6398C86.3303 64.5391 86.4495 64.4592 86.5808 64.4047C86.7121 64.3502 86.8529 64.3222 86.995 64.3222C87.1371 64.3222 87.2779 64.3502 87.4092 64.4047C87.5404 64.4592 87.6597 64.5391 87.76 64.6398C87.8903 64.7675 87.9854 64.9266 88.0362 65.1017C88.087 65.2769 88.0918 65.4623 88.05 65.6398C87.7939 66.8499 87.9356 68.1103 88.4539 69.2333C88.9721 70.3563 89.8393 71.2819 90.9262 71.8722C92.0131 72.4625 93.2616 72.686 94.4858 72.5092C95.7099 72.3325 96.8443 71.7651 97.7199 70.8915C98.5954 70.0179 99.1654 68.8848 99.3449 67.6611C99.5244 66.4373 99.3038 65.1883 98.7159 64.1001C98.1281 63.0118 97.2044 62.1426 96.0826 61.6218C94.9607 61.101 93.7006 60.9565 92.49 61.2098C92.3124 61.2506 92.1273 61.2454 91.9523 61.1946C91.7773 61.1439 91.6182 61.0493 91.49 60.9198V60.9198C91.3893 60.8195 91.3094 60.7002 91.2549 60.569C91.2004 60.4377 91.1723 60.2969 91.1723 60.1548C91.1723 60.0127 91.2004 59.8719 91.2549 59.7406C91.3094 59.6094 91.3893 59.4901 91.49 59.3898L97.85 53.0298C98.2355 52.6444 98.5413 52.1869 98.75 51.6833C98.9586 51.1797 99.066 50.6399 99.066 50.0948C99.066 49.5497 98.9586 49.0099 98.75 48.5063C98.5413 48.0027 98.2355 47.5452 97.85 47.1598L91.56 40.6998C91.4593 40.5995 91.3794 40.4802 91.3249 40.349C91.2704 40.2177 91.2423 40.0769 91.2423 39.9348C91.2423 39.7927 91.2704 39.6519 91.3249 39.5206C91.3794 39.3894 91.4593 39.2701 91.56 39.1698C91.6882 39.0403 91.8473 38.9457 92.0223 38.895C92.1973 38.8442 92.3824 38.839 92.56 38.8798C93.7706 39.1331 95.0307 38.9886 96.1526 38.4678C97.2744 37.947 98.1981 37.0778 98.7859 35.9896C99.3738 34.9013 99.5944 33.6523 99.4149 32.4285C99.2354 31.2048 98.6654 30.0717 97.7899 29.1981C96.9143 28.3245 95.7799 27.7571 94.5558 27.5804C93.3316 27.4037 92.0831 27.6271 90.9962 28.2174C89.9093 28.8077 89.0421 29.7333 88.5239 30.8563C88.0056 31.9793 87.8639 33.2397 88.12 34.4498C88.1618 34.6274 88.157 34.8127 88.1062 34.9879C88.0554 35.163 87.9603 35.3222 87.83 35.4498C87.7297 35.5505 87.6104 35.6304 87.4792 35.6849C87.3479 35.7394 87.2071 35.7675 87.065 35.7675C86.9229 35.7675 86.7821 35.7394 86.6508 35.6849C86.5195 35.6304 86.4003 35.5505 86.3 35.4498L79.91 28.9998C79.5239 28.6083 79.0638 28.2974 78.5566 28.0851C78.0493 27.8729 77.5049 27.7636 76.955 27.7636C76.4051 27.7636 75.8607 27.8729 75.3534 28.0851C74.8461 28.2974 74.3861 28.6083 74 28.9998L71.9 31.1898C73.2156 31.9857 74.3336 33.0695 75.17 34.3598V34.3598Z" fill="black"/>
<path d="M34.4498 88.0998C33.2397 87.8437 31.9793 87.9854 30.8563 88.5036C29.7333 89.0219 28.8077 89.8891 28.2174 90.976C27.6271 92.0629 27.4037 93.3114 27.5804 94.5356C27.7571 95.7597 28.3245 96.8941 29.1981 97.7696C30.0717 98.6452 31.2048 99.2152 32.4285 99.3947C33.6523 99.5742 34.9013 99.3535 35.9896 98.7657C37.0778 98.1779 37.947 97.2542 38.4678 96.1324C38.9886 95.0105 39.1331 93.7504 38.8798 92.5398C38.839 92.3622 38.8442 92.1771 38.895 92.0021C38.9457 91.8271 39.0403 91.668 39.1698 91.5398C39.2701 91.4391 39.3894 91.3592 39.5206 91.3047C39.6519 91.2502 39.7927 91.2221 39.9348 91.2221C40.0769 91.2221 40.2177 91.2502 40.349 91.3047C40.4802 91.3592 40.5995 91.4391 40.6998 91.5398L47.0598 97.8998C47.4452 98.2853 47.9027 98.5911 48.4063 98.7998C48.9099 99.0084 49.4497 99.1158 49.9948 99.1158C50.5399 99.1158 51.0797 99.0084 51.5833 98.7998C52.0869 98.5911 52.5444 98.2853 52.9298 97.8998L59.2898 91.5398C59.3901 91.4391 59.5094 91.3592 59.6406 91.3047C59.7719 91.2502 59.9127 91.2221 60.0548 91.2221C60.1969 91.2221 60.3377 91.2502 60.469 91.3047C60.6002 91.3592 60.7195 91.4391 60.8198 91.5398C60.9493 91.668 61.0439 91.8271 61.0946 92.0021C61.1454 92.1771 61.1506 92.3622 61.1098 92.5398C60.8565 93.7504 61.001 95.0105 61.5218 96.1324C62.0426 97.2542 62.9118 98.1779 64.0001 98.7657C65.0883 99.3535 66.3373 99.5742 67.5611 99.3947C68.7848 99.2152 69.9179 98.6452 70.7915 97.7696C71.6651 96.8941 72.2325 95.7597 72.4092 94.5356C72.586 93.3114 72.3625 92.0629 71.7722 90.976C71.1819 89.8891 70.2563 89.0219 69.1333 88.5036C68.0103 87.9854 66.7499 87.8437 65.5398 88.0998C65.3623 88.1416 65.1769 88.1368 65.0017 88.086C64.8266 88.0352 64.6675 87.9401 64.5398 87.8098C64.4391 87.7094 64.3592 87.5902 64.3047 87.4589C64.2502 87.3277 64.2222 87.1869 64.2222 87.0448C64.2222 86.9026 64.2502 86.7619 64.3047 86.6306C64.3592 86.4993 64.4391 86.3801 64.5398 86.2798L70.9998 79.9098C71.3913 79.5237 71.7023 79.0636 71.9145 78.5563C72.1267 78.0491 72.236 77.5047 72.236 76.9548C72.236 76.4049 72.1267 75.8605 71.9145 75.3532C71.7023 74.8459 71.3913 74.3859 70.9998 73.9998L68.8098 71.8998C68.0139 73.2154 66.9301 74.3334 65.6398 75.1698C64.0299 76.2172 62.1505 76.7748 60.2298 76.7748C58.3091 76.7748 56.4297 76.2172 54.8198 75.1698C53.3861 74.251 52.2108 72.9814 51.4053 71.4812C50.5997 69.981 50.1905 68.3 50.2166 66.5974C50.2426 64.8948 50.703 63.2271 51.5541 61.7522C52.4051 60.2774 53.6187 59.0443 55.0798 58.1698L52.9298 55.9998C52.5444 55.6143 52.0869 55.3084 51.5833 55.0998C51.0797 54.8912 50.5399 54.7838 49.9948 54.7838C49.4497 54.7838 48.9099 54.8912 48.4063 55.0998C47.9027 55.3084 47.4452 55.6143 47.0598 55.9998L40.6998 62.3898C40.5995 62.4905 40.4802 62.5704 40.349 62.6249C40.2177 62.6794 40.0769 62.7074 39.9348 62.7074C39.7927 62.7074 39.6519 62.6794 39.5206 62.6249C39.3894 62.5704 39.2701 62.4905 39.1698 62.3898C39.0403 62.2616 38.9457 62.1024 38.895 61.9274C38.8442 61.7524 38.839 61.5674 38.8798 61.3898C39.1331 60.1791 38.9886 58.9191 38.4678 57.7972C37.947 56.6753 37.0778 55.7517 35.9896 55.1639C34.9013 54.576 33.6523 54.3554 32.4285 54.5349C31.2048 54.7144 30.0717 55.2843 29.1981 56.1599C28.3245 57.0355 27.7571 58.1698 27.5804 59.394C27.4037 60.6182 27.6271 61.8667 28.2174 62.9536C28.8077 64.0405 29.7333 64.9076 30.8563 65.4259C31.9793 65.9442 33.2397 66.0858 34.4498 65.8298C34.6274 65.788 34.8127 65.7927 34.9879 65.8435C35.163 65.8943 35.3222 65.9895 35.4498 66.1198C35.5505 66.2201 35.6304 66.3393 35.6849 66.4706C35.7394 66.6019 35.7675 66.7426 35.7675 66.8848C35.7675 67.0269 35.7394 67.1677 35.6849 67.2989C35.6304 67.4302 35.5505 67.5494 35.4498 67.6498L28.9998 73.9998C28.6143 74.3852 28.3085 74.8427 28.0998 75.3463C27.8912 75.8499 27.7838 76.3897 27.7838 76.9348C27.7838 77.4799 27.8912 78.0197 28.0998 78.5232C28.3085 79.0268 28.6143 79.4844 28.9998 79.8698L35.3598 86.2298C35.4605 86.3301 35.5404 86.4493 35.5949 86.5806C35.6494 86.7119 35.6775 86.8526 35.6775 86.9948C35.6775 87.1369 35.6494 87.2777 35.5949 87.4089C35.5404 87.5402 35.4605 87.6594 35.3598 87.7598C35.2462 87.8849 35.1043 87.981 34.946 88.0402C34.7878 88.0993 34.6176 88.1197 34.4498 88.0998V88.0998Z" fill="black"/>
</svg>
