<svg width="98" height="92" viewBox="0 0 98 92" fill="none" xmlns="http://www.w3.org/2000/svg">
<path d="M34.3001 49.1999H50.3001V65.4999H34.3001V49.1999ZM69.2001 54.5999H85.8001V42.7999H69.2001V54.5999ZM69.2001 62.8999H85.8001V58.1999H69.2001V62.8999ZM13.2001 65.4999H29.2001V49.1999H13.2001V65.4999ZM50.3001 78.5999H10.8001C4.9001 78.5999 0.100098 73.7999 0.100098 67.8999V11.2999C0.100098 5.2999 5.0001 0.399902 11.0001 0.399902H73.5001C79.5001 0.399902 84.4001 5.2999 84.4001 11.2999V24.0999H77.4001V20.9999H7.2001V66.6999C7.2001 69.3999 9.4001 71.5999 12.1001 71.5999H50.3001V78.5999V78.5999ZM28.8001 10.9999C28.8001 12.8999 30.3001 14.4999 32.3001 14.4999C34.2001 14.4999 35.8001 12.9999 35.8001 10.9999C35.8001 8.9999 34.3001 7.4999 32.3001 7.4999C30.3001 7.4999 28.8001 9.0999 28.8001 10.9999ZM18.7001 10.9999C18.7001 12.8999 20.2001 14.4999 22.2001 14.4999C23.9001 14.4999 25.3001 13.2999 25.6001 11.6999C25.6001 11.4999 25.7001 11.1999 25.7001 10.9999C25.7001 10.7999 25.7001 10.4999 25.6001 10.2999C25.3001 8.6999 23.9001 7.4999 22.2001 7.4999C20.2001 7.4999 18.7001 9.0999 18.7001 10.9999ZM8.6001 10.9999C8.6001 12.8999 10.1001 14.4999 12.1001 14.4999C14.0001 14.4999 15.6001 12.9999 15.6001 10.9999C15.6001 8.9999 14.1001 7.4999 12.1001 7.4999C10.1001 7.4999 8.6001 9.0999 8.6001 10.9999ZM50.3001 37.7999C50.3001 33.6999 52.1001 30.0999 54.9001 27.4999H13.2001V42.9999H50.3001V37.7999ZM97.9001 84.5999V37.7999C97.9001 33.9999 94.8001 30.7999 90.9001 30.7999H64.0001C60.2001 30.7999 57.0001 33.8999 57.0001 37.7999V84.5999C57.0001 88.3999 60.1001 91.5999 64.0001 91.5999H90.9001C94.7001 91.5999 97.9001 88.4999 97.9001 84.5999ZM90.9001 37.5999C91.0001 37.5999 91.1001 37.6999 91.1001 37.7999V84.5999C91.1001 84.6999 91.0001 84.7999 90.9001 84.7999H64.0001C63.9001 84.7999 63.8001 84.6999 63.8001 84.5999V37.7999C63.8001 37.6999 63.9001 37.5999 64.0001 37.5999H90.9001V37.5999ZM69.2001 71.2999H85.8001V66.5999H69.2001V71.2999ZM69.2001 79.5999H85.8001V74.8999H69.2001V79.5999Z" fill="black"/>
</svg>
