<svg width="44" height="45" viewBox="0 0 44 58" fill="none" xmlns="http://www.w3.org/2000/svg">
<path d="M13.1998 53.931L10.8408 45H12.7478L14.1878 51.012L15.6998 45H17.6198L15.2438 53.928L13.1998 53.931Z" fill="black"/>
<path d="M21.8929 54.051C21.4306 54.08 20.9672 54.017 20.5295 53.8656C20.0917 53.7142 19.6884 53.4774 19.3429 53.169C19.0258 52.8308 18.7817 52.4309 18.6258 51.9943C18.47 51.5576 18.4056 51.0936 18.4369 50.631V45H20.3449V50.514C20.2959 51.0282 20.4178 51.5442 20.6919 51.982C20.8398 52.142 21.0234 52.2647 21.2278 52.3401C21.4322 52.4155 21.6515 52.4415 21.8679 52.416C22.1222 52.4236 22.376 52.3871 22.6179 52.308C22.7965 52.2481 22.9559 52.1418 23.0799 52C23.3539 51.5662 23.4766 51.0539 23.4289 50.543V45H25.3359V50.544C25.3683 51.0154 25.3065 51.4886 25.154 51.9359C25.0016 52.3831 24.7615 52.7955 24.4479 53.149C24.1054 53.4647 23.7023 53.7075 23.2631 53.8626C22.8238 54.0176 22.3577 54.0817 21.8929 54.051V54.051Z" fill="black"/>
<path d="M26.6558 45H32.6448V46.632H28.5638V48.456H31.5398V50.088L28.5638 50.101V52.301H32.7878V53.933H26.6558V45Z" fill="black"/>
<path d="M30.2319 34.0871L35.4689 31.0631V25.0181L30.2319 28.0471V34.0871Z" fill="black"/>
<path d="M34.469 23.2862L29.234 20.2642L24.002 23.2852L29.242 26.3092L34.469 23.2862Z" fill="black"/>
<path d="M28.232 28.4661V28.0361L23 25.0161V31.0631L28.232 34.0841V28.4661Z" fill="black"/>
<path d="M8.53076 22.7091L13.7628 25.7291V20.1111V19.6811L8.53076 16.6611V22.7091Z" fill="black"/>
<path d="M43.84 14.73C43.82 14.71 43.8 14.68 43.78 14.66C43.7597 14.6308 43.7362 14.604 43.71 14.58L29.42 0.29C29.4 0.27 29.37 0.25 29.35 0.23C29.33 0.21 29.29 0.18 29.27 0.16L29.12 0H4C2.93913 0 1.92172 0.421427 1.17157 1.17157C0.421427 1.92172 0 2.93913 0 4V54C0 55.0609 0.421427 56.0783 1.17157 56.8284C1.92172 57.5786 2.93913 58 4 58H40C41.0609 58 42.0783 57.5786 42.8284 56.8284C43.5786 56.0783 44 55.0609 44 54V14.88L43.84 14.73ZM29.71 3.41L40.59 14.29H31.71C31.1801 14.2884 30.6723 14.0772 30.2975 13.7025C29.9228 13.3277 29.7116 12.8199 29.71 12.29V3.41ZM6.531 14.354L14.766 9.6L23 14.354V21.554L29.234 17.954L37.469 22.708V32.217L29.234 36.972L21 32.218V25.018L14.766 28.618L6.531 23.863V14.354ZM42 54C41.9984 54.5299 41.7872 55.0377 41.4125 55.4125C41.0377 55.7872 40.5299 55.9984 40 56H4C3.47005 55.9984 2.96227 55.7872 2.58753 55.4125C2.2128 55.0377 2.00158 54.5299 2 54V38.46H15.73L18.43 41.55C18.5229 41.6576 18.6381 41.7438 18.7676 41.8025C18.8971 41.8612 19.0378 41.8911 19.18 41.89H42V54Z" fill="black"/>
<path d="M20.0002 14.9322L14.7662 11.9102L9.5332 14.9302L14.7732 17.9542L20.0002 14.9322Z" fill="black"/>
<path d="M15.7632 25.7331L21.0002 22.7101V22.7091V16.6641L15.7632 19.6921V25.7331Z" fill="black"/>
</svg>
